<?xml version="1.0" encoding="utf-8"?>
<!-- Generator: Adobe Illustrator 16.0.0, SVG Export Plug-In . SVG Version: 6.00 Build 0)  -->
<!DOCTYPE svg PUBLIC "-//W3C//DTD SVG 1.1//EN" "http://www.w3.org/Graphics/SVG/1.1/DTD/svg11.dtd">
<svg version="1.1" id="Layer_1" xmlns="http://www.w3.org/2000/svg" xmlns:xlink="http://www.w3.org/1999/xlink" x="0px" y="0px"
	 width="320px" height="320px" viewBox="0 0 320 320" enable-background="new 0 0 320 320" xml:space="preserve">
<g>
	<g>
		<polygon fill="none" points="160,167.998 176,183.998 160,183.998 160,199.998 176,199.998 192,183.998 176,167.998 192,167.998 
			192,151.998 176,151.998 		"/>
		<path fill="none" d="M232,151.998h-16l-16,16v16l16,16h16l16-16h-16l16-16L232,151.998z M216,183.998v-16h16L216,183.998z"/>
		<polygon fill="none" points="288,184 272,184 272,183.998 272,167.998 272,151.998 272,135.998 272,119.998 256,119.998 
			256,135.998 256,151.998 256,167.998 256,183.998 256,199.998 272,199.998 272,200 		"/>
		<polygon fill="none" points="136,167.998 136,183.998 136,199.998 152,199.998 152,183.998 152,167.998 152,151.998 136,151.998 
					"/>
		<polygon fill="none" points="136,143.998 152,143.998 136,127.998 		"/>
		<polygon fill="none" points="96,151.998 96,135.998 96,119.998 80,119.998 80,135.998 80,151.998 80,167.998 80,183.998 
			80,199.998 96,199.998 96,183.998 96,167.998 112,167.998 112,183.998 112,199.998 128,199.998 128,183.998 128,167.998 
			112,151.998 		"/>
		<polygon fill="none" points="56,167.998 72,167.998 56,151.998 40,151.998 24,167.998 24,183.998 40,199.998 56,199.998 
			72,183.998 56,183.998 40,183.998 40,167.998 		"/>
	</g>
	<g>
		<g>
			<g>
				<path fill="#FFFFFF" d="M232.5,181.793c0,0.55,0.318,0.682,0.707,0.293l12.879-12.879c0.389-0.389,0.257-0.707-0.293-0.707
					H233.5c-0.55,0-1,0.45-1,1V181.793z"/>
			</g>
			<g>
				<path fill="#FFFFFF" d="M174.5,199.5c0.55,0,1-0.45,1-1v-12.293c0-0.55-0.318-0.682-0.707-0.293l-12.879,12.879
					c-0.389,0.389-0.257,0.707,0.293,0.707H174.5z"/>
			</g>
			<g>
				<path fill="#FFFFFF" d="M230.5,167.5c0.55,0,1-0.45,1-1v-12.293c0-0.55-0.318-0.682-0.707-0.293l-12.879,12.879
					c-0.389,0.389-0.257,0.707,0.293,0.707H230.5z"/>
			</g>
			<g>
				<path fill="#FFFFFF" d="M232.5,166.5c0,0.55,0.45,1,1,1h12.293c0.55,0,0.682-0.318,0.293-0.707l-12.879-12.879
					c-0.389-0.389-0.707-0.257-0.707,0.293V166.5z"/>
			</g>
			<g>
				<path fill="#FFFFFF" d="M200.5,181.793c0,0.55,0.318,0.682,0.707,0.293l12.879-12.879c0.389-0.389,0.257-0.707-0.293-0.707
					H201.5c-0.55,0-1,0.45-1,1V181.793z"/>
			</g>
			<g>
				<path fill="#FFFFFF" d="M214.5,167.5c0.55,0,1-0.45,1-1v-12.293c0-0.55-0.318-0.682-0.707-0.293l-12.879,12.879
					c-0.389,0.389-0.257,0.707,0.293,0.707H214.5z"/>
			</g>
			<g>
				<path fill="#FFFFFF" d="M217.5,152.5c-0.55,0-1,0.45-1,1v12.293c0,0.55,0.318,0.682,0.707,0.293l12.879-12.879
					c0.389-0.389,0.257-0.707-0.293-0.707H217.5z"/>
			</g>
			<g>
				<path fill="#FFFFFF" d="M176.5,197.793c0,0.55,0.318,0.682,0.707,0.293l12.879-12.879c0.389-0.389,0.257-0.707-0.293-0.707
					H177.5c-0.55,0-1,0.45-1,1V197.793z"/>
			</g>
			<g>
				<path fill="#FFFFFF" d="M190.5,167.5c0.55,0,1-0.45,1-1v-12.293c0-0.55-0.318-0.682-0.707-0.293l-12.879,12.879
					c-0.389,0.389-0.257,0.707,0.293,0.707H190.5z"/>
			</g>
			<g>
				<path fill="#FFFFFF" d="M176.5,182.5c0,0.55,0.45,1,1,1h12.293c0.55,0,0.682-0.318,0.293-0.707l-12.879-12.879
					c-0.389-0.389-0.707-0.257-0.707,0.293V182.5z"/>
			</g>
			<g>
				<path fill="#FFFFFF" d="M161.5,184.5c-0.55,0-1,0.45-1,1v12.293c0,0.55,0.318,0.682,0.707,0.293l12.879-12.879
					c0.389-0.389,0.257-0.707-0.293-0.707H161.5z"/>
			</g>
			<g>
				<path fill="#FFFFFF" d="M177.5,152.5c-0.55,0-1,0.45-1,1v12.293c0,0.55,0.318,0.682,0.707,0.293l12.879-12.879
					c0.389-0.389,0.257-0.707-0.293-0.707H177.5z"/>
			</g>
			<g>
				<path fill="#FFFFFF" d="M214.793,198.086c0.389,0.389,0.707,0.257,0.707-0.293V185.5c0-0.55-0.45-1-1-1h-12.293
					c-0.55,0-0.682,0.318-0.293,0.707L214.793,198.086z"/>
			</g>
			<g>
				<path fill="#FFFFFF" d="M175.5,154.207c0-0.55-0.318-0.682-0.707-0.293l-12.879,12.879c-0.389,0.389-0.257,0.707,0.293,0.707
					H174.5c0.55,0,1-0.45,1-1V154.207z"/>
			</g>
			<g>
				<path fill="#FFFFFF" d="M175.5,169.5c0-0.55-0.45-1-1-1h-12.293c-0.55,0-0.682,0.318-0.293,0.707l12.879,12.879
					c0.389,0.389,0.707,0.257,0.707-0.293V169.5z"/>
			</g>
			<g>
				<path fill="#FFFFFF" d="M271.5,169.5c0-0.55-0.45-1-1-1h-12.293c-0.55,0-0.682,0.318-0.293,0.707l12.879,12.879
					c0.389,0.389,0.707,0.257,0.707-0.293V169.5z"/>
			</g>
			<g>
				<path fill="#CA2027" d="M136.5,142.5c0,0.55,0.45,1,1,1h12.293c0.55,0,0.682-0.318,0.293-0.707l-12.879-12.879
					c-0.389-0.389-0.707-0.257-0.707,0.293V142.5z"/>
			</g>
			<g>
				<path fill="#FFFFFF" d="M256.5,182.5c0,0.55,0.45,1,1,1h12.293c0.55,0,0.682-0.318,0.293-0.707l-12.879-12.879
					c-0.389-0.389-0.707-0.257-0.707,0.293V182.5z"/>
			</g>
			<g>
				<path fill="#FFFFFF" d="M270.5,199.5c0.55,0,1-0.45,1-1v-12.293c0-0.55-0.318-0.682-0.707-0.293l-12.879,12.879
					c-0.389,0.389-0.257,0.707,0.293,0.707H270.5z"/>
			</g>
			<g>
				<path fill="#FFFFFF" d="M271.5,137.5c0-0.55-0.45-1-1-1h-12.293c-0.55,0-0.682,0.318-0.293,0.707l12.879,12.879
					c0.389,0.389,0.707,0.257,0.707-0.293V137.5z"/>
			</g>
			<g>
				<path fill="#FFFFFF" d="M271.5,154.207c0-0.55-0.318-0.682-0.707-0.293l-12.879,12.879c-0.389,0.389-0.257,0.707,0.293,0.707
					H270.5c0.55,0,1-0.45,1-1V154.207z"/>
			</g>
			<g>
				<path fill="#FFFFFF" d="M286.086,185.209c0.389-0.389,0.257-0.707-0.293-0.707H273.5c-0.55,0-1,0.45-1,1v12.293
					c0,0.55,0.318,0.682,0.707,0.293L286.086,185.209z"/>
			</g>
			<g>
				<path fill="#FFFFFF" d="M257.207,137.914c-0.389-0.389-0.707-0.257-0.707,0.293V150.5c0,0.55,0.45,1,1,1h12.293
					c0.55,0,0.682-0.318,0.293-0.707L257.207,137.914z"/>
			</g>
			<g>
				<path fill="#FFFFFF" d="M256.5,165.793c0,0.55,0.318,0.682,0.707,0.293l12.879-12.879c0.389-0.389,0.257-0.707-0.293-0.707
					H257.5c-0.55,0-1,0.45-1,1V165.793z"/>
			</g>
			<g>
				<path fill="#FFFFFF" d="M232.5,197.793c0,0.55,0.318,0.682,0.707,0.293l12.879-12.879c0.389-0.389,0.257-0.707-0.293-0.707
					H233.5c-0.55,0-1,0.45-1,1V197.793z"/>
			</g>
			<g>
				<path fill="#FFFFFF" d="M231.5,186.207c0-0.55-0.318-0.682-0.707-0.293l-12.879,12.879c-0.389,0.389-0.257,0.707,0.293,0.707
					H230.5c0.55,0,1-0.45,1-1V186.207z"/>
			</g>
			<g>
				<path fill="#FFFFFF" d="M230.5,183.5c0.55,0,1-0.45,1-1v-12.293c0-0.55-0.318-0.682-0.707-0.293l-12.879,12.879
					c-0.389,0.389-0.257,0.707,0.293,0.707H230.5z"/>
			</g>
			<g>
				<path fill="#FFFFFF" d="M216.5,197.793c0,0.55,0.318,0.682,0.707,0.293l12.879-12.879c0.389-0.389,0.257-0.707-0.293-0.707
					H217.5c-0.55,0-1,0.45-1,1V197.793z"/>
			</g>
			<g>
				<path fill="#FFFFFF" d="M257.5,184.5c-0.55,0-1,0.45-1,1v12.293c0,0.55,0.318,0.682,0.707,0.293l12.879-12.879
					c0.389-0.389,0.257-0.707-0.293-0.707H257.5z"/>
			</g>
			<g>
				<path fill="#FFFFFF" d="M271.5,122.207c0-0.55-0.318-0.682-0.707-0.293l-12.879,12.879c-0.389,0.389-0.257,0.707,0.293,0.707
					H270.5c0.55,0,1-0.45,1-1V122.207z"/>
			</g>
			<g>
				<path fill="#FFFFFF" d="M215.5,170.207c0-0.55-0.318-0.682-0.707-0.293l-12.879,12.879c-0.389,0.389-0.257,0.707,0.293,0.707
					H214.5c0.55,0,1-0.45,1-1V170.207z"/>
			</g>
			<g>
				<path fill="#FFFFFF" d="M257.5,120.5c-0.55,0-1,0.45-1,1v12.293c0,0.55,0.318,0.682,0.707,0.293l12.879-12.879
					c0.389-0.389,0.257-0.707-0.293-0.707H257.5z"/>
			</g>
			<g>
				<path fill="#FFFFFF" d="M95.5,154.207c0-0.55-0.318-0.682-0.707-0.293l-12.879,12.879c-0.389,0.389-0.257,0.707,0.293,0.707
					H94.5c0.55,0,1-0.45,1-1V154.207z"/>
			</g>
			<g>
				<path fill="#FFFFFF" d="M113.207,153.914c-0.389-0.389-0.707-0.257-0.707,0.293V166.5c0,0.55,0.45,1,1,1h12.293
					c0.55,0,0.682-0.318,0.293-0.707L113.207,153.914z"/>
			</g>
			<g>
				<path fill="#FFFFFF" d="M56.5,197.793c0,0.55,0.318,0.682,0.707,0.293l12.879-12.879c0.389-0.389,0.257-0.707-0.293-0.707H57.5
					c-0.55,0-1,0.45-1,1V197.793z"/>
			</g>
			<g>
				<path fill="#FFFFFF" d="M126.793,182.086c0.389,0.389,0.707,0.257,0.707-0.293V169.5c0-0.55-0.45-1-1-1h-12.293
					c-0.55,0-0.682,0.318-0.293,0.707L126.793,182.086z"/>
			</g>
			<g>
				<path fill="#FFFFFF" d="M54.5,199.5c0.55,0,1-0.45,1-1v-12.293c0-0.55-0.318-0.682-0.707-0.293l-12.879,12.879
					c-0.389,0.389-0.257,0.707,0.293,0.707H54.5z"/>
			</g>
			<g>
				<path fill="#FFFFFF" d="M112.5,197.793c0,0.55,0.318,0.682,0.707,0.293l12.879-12.879c0.389-0.389,0.257-0.707-0.293-0.707
					H113.5c-0.55,0-1,0.45-1,1V197.793z"/>
			</g>
			<g>
				<path fill="#FFFFFF" d="M126.5,199.5c0.55,0,1-0.45,1-1v-12.293c0-0.55-0.318-0.682-0.707-0.293l-12.879,12.879
					c-0.389,0.389-0.257,0.707,0.293,0.707H126.5z"/>
			</g>
			<g>
				<path fill="#FFFFFF" d="M41.5,184.5c-0.55,0-1,0.45-1,1v12.293c0,0.55,0.318,0.682,0.707,0.293l12.879-12.879
					c0.389-0.389,0.257-0.707-0.293-0.707H41.5z"/>
			</g>
			<g>
				<path fill="#FFFFFF" d="M113.207,169.914c-0.389-0.389-0.707-0.257-0.707,0.293V182.5c0,0.55,0.45,1,1,1h12.293
					c0.55,0,0.682-0.318,0.293-0.707L113.207,169.914z"/>
			</g>
			<g>
				<path fill="#FFFFFF" d="M54.5,167.5c0.55,0,1-0.45,1-1v-12.293c0-0.55-0.318-0.682-0.707-0.293l-12.879,12.879
					c-0.389,0.389-0.257,0.707,0.293,0.707H54.5z"/>
			</g>
			<g>
				<path fill="#FFFFFF" d="M96.5,166.5c0,0.55,0.45,1,1,1h12.293c0.55,0,0.682-0.318,0.293-0.707l-12.879-12.879
					c-0.389-0.389-0.707-0.257-0.707,0.293V166.5z"/>
			</g>
			<g>
				<path fill="#FFFFFF" d="M39.5,170.207c0-0.55-0.318-0.682-0.707-0.293l-12.879,12.879c-0.389,0.389-0.257,0.707,0.293,0.707
					H38.5c0.55,0,1-0.45,1-1V170.207z"/>
			</g>
			<g>
				<path fill="#FFFFFF" d="M41.5,152.5c-0.55,0-1,0.45-1,1v12.293c0,0.55,0.318,0.682,0.707,0.293l12.879-12.879
					c0.389-0.389,0.257-0.707-0.293-0.707H41.5z"/>
			</g>
			<g>
				<path fill="#FFFFFF" d="M136.5,182.5c0,0.55,0.45,1,1,1h12.293c0.55,0,0.682-0.318,0.293-0.707l-12.879-12.879
					c-0.389-0.389-0.707-0.257-0.707,0.293V182.5z"/>
			</g>
			<g>
				<path fill="#FFFFFF" d="M38.793,198.086c0.389,0.389,0.707,0.257,0.707-0.293V185.5c0-0.55-0.45-1-1-1H26.207
					c-0.55,0-0.682,0.318-0.293,0.707L38.793,198.086z"/>
			</g>
			<g>
				<path fill="#FFFFFF" d="M38.5,167.5c0.55,0,1-0.45,1-1v-12.293c0-0.55-0.318-0.682-0.707-0.293l-12.879,12.879
					c-0.389,0.389-0.257,0.707,0.293,0.707H38.5z"/>
			</g>
			<g>
				<path fill="#FFFFFF" d="M24.5,181.793c0,0.55,0.318,0.682,0.707,0.293l12.879-12.879c0.389-0.389,0.257-0.707-0.293-0.707H25.5
					c-0.55,0-1,0.45-1,1V181.793z"/>
			</g>
			<g>
				<path fill="#FFFFFF" d="M56.5,166.5c0,0.55,0.45,1,1,1h12.293c0.55,0,0.682-0.318,0.293-0.707l-12.879-12.879
					c-0.389-0.389-0.707-0.257-0.707,0.293V166.5z"/>
			</g>
			<g>
				<path fill="#FFFFFF" d="M150.5,167.5c0.55,0,1-0.45,1-1v-12.293c0-0.55-0.318-0.682-0.707-0.293l-12.879,12.879
					c-0.389,0.389-0.257,0.707,0.293,0.707H150.5z"/>
			</g>
			<g>
				<path fill="#FFFFFF" d="M94.793,182.086c0.389,0.389,0.707,0.257,0.707-0.293V169.5c0-0.55-0.45-1-1-1H82.207
					c-0.55,0-0.682,0.318-0.293,0.707L94.793,182.086z"/>
			</g>
			<g>
				<path fill="#FFFFFF" d="M136.5,197.793c0,0.55,0.318,0.682,0.707,0.293l12.879-12.879c0.389-0.389,0.257-0.707-0.293-0.707
					H137.5c-0.55,0-1,0.45-1,1V197.793z"/>
			</g>
			<g>
				<path fill="#FFFFFF" d="M151.5,169.5c0-0.55-0.45-1-1-1h-12.293c-0.55,0-0.682,0.318-0.293,0.707l12.879,12.879
					c0.389,0.389,0.707,0.257,0.707-0.293V169.5z"/>
			</g>
			<g>
				<path fill="#FFFFFF" d="M150.5,199.5c0.55,0,1-0.45,1-1v-12.293c0-0.55-0.318-0.682-0.707-0.293l-12.879,12.879
					c-0.389,0.389-0.257,0.707,0.293,0.707H150.5z"/>
			</g>
			<g>
				<path fill="#FFFFFF" d="M137.5,152.5c-0.55,0-1,0.45-1,1v12.293c0,0.55,0.318,0.682,0.707,0.293l12.879-12.879
					c0.389-0.389,0.257-0.707-0.293-0.707H137.5z"/>
			</g>
			<g>
				<path fill="#FFFFFF" d="M80.5,150.5c0,0.55,0.45,1,1,1h12.293c0.55,0,0.682-0.318,0.293-0.707l-12.879-12.879
					c-0.389-0.389-0.707-0.257-0.707,0.293V150.5z"/>
			</g>
			<g>
				<path fill="#FFFFFF" d="M81.5,120.5c-0.55,0-1,0.45-1,1v12.293c0,0.55,0.318,0.682,0.707,0.293l12.879-12.879
					c0.389-0.389,0.257-0.707-0.293-0.707H81.5z"/>
			</g>
			<g>
				<path fill="#FFFFFF" d="M80.5,197.793c0,0.55,0.318,0.682,0.707,0.293l12.879-12.879c0.389-0.389,0.257-0.707-0.293-0.707H81.5
					c-0.55,0-1,0.45-1,1V197.793z"/>
			</g>
			<g>
				<path fill="#FFFFFF" d="M94.5,135.5c0.55,0,1-0.45,1-1v-12.293c0-0.55-0.318-0.682-0.707-0.293l-12.879,12.879
					c-0.389,0.389-0.257,0.707,0.293,0.707H94.5z"/>
			</g>
			<g>
				<path fill="#FFFFFF" d="M94.5,199.5c0.55,0,1-0.45,1-1v-12.293c0-0.55-0.318-0.682-0.707-0.293l-12.879,12.879
					c-0.389,0.389-0.257,0.707,0.293,0.707H94.5z"/>
			</g>
			<g>
				<path fill="#FFFFFF" d="M95.5,137.5c0-0.55-0.45-1-1-1H82.207c-0.55,0-0.682,0.318-0.293,0.707l12.879,12.879
					c0.389,0.389,0.707,0.257,0.707-0.293V137.5z"/>
			</g>
			<g>
				<path fill="#FFFFFF" d="M80.5,182.5c0,0.55,0.45,1,1,1h12.293c0.55,0,0.682-0.318,0.293-0.707l-12.879-12.879
					c-0.389-0.389-0.707-0.257-0.707,0.293V182.5z"/>
			</g>
			<g>
				<path fill="#FFFFFF" d="M111.5,153.5c0-0.55-0.45-1-1-1H98.207c-0.55,0-0.682,0.318-0.293,0.707l12.879,12.879
					c0.389,0.389,0.707,0.257,0.707-0.293V153.5z"/>
			</g>
			<g>
				<path fill="#FFFFFF" d="M80.5,165.793c0,0.55,0.318,0.682,0.707,0.293l12.879-12.879c0.389-0.389,0.257-0.707-0.293-0.707H81.5
					c-0.55,0-1,0.45-1,1V165.793z"/>
			</g>
		</g>
	</g>
</g>
</svg>
