<?xml version="1.0" encoding="utf-8"?>
<!-- Generator: Adobe Illustrator 16.0.0, SVG Export Plug-In . SVG Version: 6.00 Build 0)  -->
<!DOCTYPE svg PUBLIC "-//W3C//DTD SVG 1.1//EN" "http://www.w3.org/Graphics/SVG/1.1/DTD/svg11.dtd">
<svg version="1.1" id="Layer_1" xmlns="http://www.w3.org/2000/svg" xmlns:xlink="http://www.w3.org/1999/xlink" x="0px" y="0px"
	 width="320px" height="128px" viewBox="0 0 320 128" enable-background="new 0 0 320 128" xml:space="preserve">
<g id="Flat_Color">
	<g>
		<polygon fill="none" points="160,72 176,88 160,88 160,104 176,104 192,88 176,72 192,72 192,56 176,56 		"/>
		<path fill="none" d="M232,56h-16l-16,16v16l16,16h16l16-16h-16l16-16L232,56z M216,88V72h16L216,88z"/>
		<polygon fill="none" points="288,88.002 272,88.002 272,88 272,72 272,56 272,40 272,24 256,24 256,40 256,56 256,72 256,88 
			256,104 272,104 272,104.002 		"/>
		<polygon fill="none" points="136,72 136,88 136,104 152,104 152,88 152,72 152,56 136,56 		"/>
		<polygon fill="none" points="136,48 152,48 136,32 		"/>
		<polygon fill="none" points="96,56 96,40 96,24 80,24 80,40 80,56 80,72 80,88 80,104 96,104 96,88 96,72 112,72 112,88 112,104 
			128,104 128,88 128,72 112,56 		"/>
		<polygon fill="none" points="56,72 72,72 56,56 40,56 24,72 24,88 40,104 56,104 72,88 56,88 40,88 40,72 		"/>
	</g>
	<g>
		<g>
			<path fill="#1A8EBD" d="M232.5,85.795c0,0.55,0.318,0.682,0.707,0.293l12.879-12.879c0.389-0.389,0.257-0.707-0.293-0.707H233.5
				c-0.55,0-1,0.45-1,1V85.795z"/>
		</g>
		<g>
			<path fill="#1A8EBD" d="M174.5,103.502c0.55,0,1-0.45,1-1V90.209c0-0.55-0.318-0.682-0.707-0.293l-12.879,12.879
				c-0.389,0.389-0.257,0.707,0.293,0.707H174.5z"/>
		</g>
		<g>
			<path fill="#1A8EBD" d="M230.5,71.502c0.55,0,1-0.45,1-1V58.209c0-0.55-0.318-0.682-0.707-0.293l-12.879,12.879
				c-0.389,0.389-0.257,0.707,0.293,0.707H230.5z"/>
		</g>
		<g>
			<path fill="#1A8EBD" d="M232.5,70.502c0,0.55,0.45,1,1,1h12.293c0.55,0,0.682-0.318,0.293-0.707l-12.879-12.879
				c-0.389-0.389-0.707-0.257-0.707,0.293V70.502z"/>
		</g>
		<g>
			<path fill="#1A8EBD" d="M200.5,85.795c0,0.55,0.318,0.682,0.707,0.293l12.879-12.879c0.389-0.389,0.257-0.707-0.293-0.707H201.5
				c-0.55,0-1,0.45-1,1V85.795z"/>
		</g>
		<g>
			<path fill="#1A8EBD" d="M214.5,71.502c0.55,0,1-0.45,1-1V58.209c0-0.55-0.318-0.682-0.707-0.293l-12.879,12.879
				c-0.389,0.389-0.257,0.707,0.293,0.707H214.5z"/>
		</g>
		<g>
			<path fill="#1A8EBD" d="M217.5,56.502c-0.55,0-1,0.45-1,1v12.293c0,0.55,0.318,0.682,0.707,0.293l12.879-12.879
				c0.389-0.389,0.257-0.707-0.293-0.707H217.5z"/>
		</g>
		<g>
			<path fill="#1A8EBD" d="M176.5,101.795c0,0.55,0.318,0.682,0.707,0.293l12.879-12.879c0.389-0.389,0.257-0.707-0.293-0.707H177.5
				c-0.55,0-1,0.45-1,1V101.795z"/>
		</g>
		<g>
			<path fill="#1A8EBD" d="M190.5,71.502c0.55,0,1-0.45,1-1V58.209c0-0.55-0.318-0.682-0.707-0.293l-12.879,12.879
				c-0.389,0.389-0.257,0.707,0.293,0.707H190.5z"/>
		</g>
		<g>
			<path fill="#1A8EBD" d="M176.5,86.502c0,0.55,0.45,1,1,1h12.293c0.55,0,0.682-0.318,0.293-0.707l-12.879-12.879
				c-0.389-0.389-0.707-0.257-0.707,0.293V86.502z"/>
		</g>
		<g>
			<path fill="#1A8EBD" d="M161.5,88.502c-0.55,0-1,0.45-1,1v12.293c0,0.55,0.318,0.682,0.707,0.293l12.879-12.879
				c0.389-0.389,0.257-0.707-0.293-0.707H161.5z"/>
		</g>
		<g>
			<path fill="#1A8EBD" d="M177.5,56.502c-0.55,0-1,0.45-1,1v12.293c0,0.55,0.318,0.682,0.707,0.293l12.879-12.879
				c0.389-0.389,0.257-0.707-0.293-0.707H177.5z"/>
		</g>
		<g>
			<path fill="#1A8EBD" d="M214.793,102.088c0.389,0.389,0.707,0.257,0.707-0.293V89.502c0-0.55-0.45-1-1-1h-12.293
				c-0.55,0-0.682,0.318-0.293,0.707L214.793,102.088z"/>
		</g>
		<g>
			<path fill="#1A8EBD" d="M175.5,58.209c0-0.55-0.318-0.682-0.707-0.293l-12.879,12.879c-0.389,0.389-0.257,0.707,0.293,0.707
				H174.5c0.55,0,1-0.45,1-1V58.209z"/>
		</g>
		<g>
			<path fill="#1A8EBD" d="M175.5,73.502c0-0.55-0.45-1-1-1h-12.293c-0.55,0-0.682,0.318-0.293,0.707l12.879,12.879
				c0.389,0.389,0.707,0.257,0.707-0.293V73.502z"/>
		</g>
		<g>
			<path fill="#1A8EBD" d="M271.5,73.502c0-0.55-0.45-1-1-1h-12.293c-0.55,0-0.682,0.318-0.293,0.707l12.879,12.879
				c0.389,0.389,0.707,0.257,0.707-0.293V73.502z"/>
		</g>
		<g>
			<path fill="#CA2027" d="M136.5,46.502c0,0.55,0.45,1,1,1h12.293c0.55,0,0.682-0.318,0.293-0.707l-12.879-12.879
				c-0.389-0.389-0.707-0.257-0.707,0.293V46.502z"/>
		</g>
		<g>
			<path fill="#1A8EBD" d="M256.5,86.502c0,0.55,0.45,1,1,1h12.293c0.55,0,0.682-0.318,0.293-0.707l-12.879-12.879
				c-0.389-0.389-0.707-0.257-0.707,0.293V86.502z"/>
		</g>
		<g>
			<path fill="#1A8EBD" d="M270.5,103.502c0.55,0,1-0.45,1-1V90.209c0-0.55-0.318-0.682-0.707-0.293l-12.879,12.879
				c-0.389,0.389-0.257,0.707,0.293,0.707H270.5z"/>
		</g>
		<g>
			<path fill="#1A8EBD" d="M271.5,41.502c0-0.55-0.45-1-1-1h-12.293c-0.55,0-0.682,0.318-0.293,0.707l12.879,12.879
				c0.389,0.389,0.707,0.257,0.707-0.293V41.502z"/>
		</g>
		<g>
			<path fill="#1A8EBD" d="M271.5,58.209c0-0.55-0.318-0.682-0.707-0.293l-12.879,12.879c-0.389,0.389-0.257,0.707,0.293,0.707
				H270.5c0.55,0,1-0.45,1-1V58.209z"/>
		</g>
		<g>
			<path fill="#1A8EBD" d="M286.086,89.211c0.389-0.389,0.257-0.707-0.293-0.707H273.5c-0.55,0-1,0.45-1,1v12.293
				c0,0.55,0.318,0.682,0.707,0.293L286.086,89.211z"/>
		</g>
		<g>
			<path fill="#1A8EBD" d="M257.207,41.916c-0.389-0.389-0.707-0.257-0.707,0.293v12.293c0,0.55,0.45,1,1,1h12.293
				c0.55,0,0.682-0.318,0.293-0.707L257.207,41.916z"/>
		</g>
		<g>
			<path fill="#1A8EBD" d="M256.5,69.795c0,0.55,0.318,0.682,0.707,0.293l12.879-12.879c0.389-0.389,0.257-0.707-0.293-0.707H257.5
				c-0.55,0-1,0.45-1,1V69.795z"/>
		</g>
		<g>
			<path fill="#1A8EBD" d="M232.5,101.795c0,0.55,0.318,0.682,0.707,0.293l12.879-12.879c0.389-0.389,0.257-0.707-0.293-0.707H233.5
				c-0.55,0-1,0.45-1,1V101.795z"/>
		</g>
		<g>
			<path fill="#1A8EBD" d="M231.5,90.209c0-0.55-0.318-0.682-0.707-0.293l-12.879,12.879c-0.389,0.389-0.257,0.707,0.293,0.707
				H230.5c0.55,0,1-0.45,1-1V90.209z"/>
		</g>
		<g>
			<path fill="#1A8EBD" d="M230.5,87.502c0.55,0,1-0.45,1-1V74.209c0-0.55-0.318-0.682-0.707-0.293l-12.879,12.879
				c-0.389,0.389-0.257,0.707,0.293,0.707H230.5z"/>
		</g>
		<g>
			<path fill="#1A8EBD" d="M216.5,101.795c0,0.55,0.318,0.682,0.707,0.293l12.879-12.879c0.389-0.389,0.257-0.707-0.293-0.707H217.5
				c-0.55,0-1,0.45-1,1V101.795z"/>
		</g>
		<g>
			<path fill="#1A8EBD" d="M257.5,88.502c-0.55,0-1,0.45-1,1v12.293c0,0.55,0.318,0.682,0.707,0.293l12.879-12.879
				c0.389-0.389,0.257-0.707-0.293-0.707H257.5z"/>
		</g>
		<g>
			<path fill="#1A8EBD" d="M271.5,26.209c0-0.55-0.318-0.682-0.707-0.293l-12.879,12.879c-0.389,0.389-0.257,0.707,0.293,0.707
				H270.5c0.55,0,1-0.45,1-1V26.209z"/>
		</g>
		<g>
			<path fill="#1A8EBD" d="M215.5,74.209c0-0.55-0.318-0.682-0.707-0.293l-12.879,12.879c-0.389,0.389-0.257,0.707,0.293,0.707
				H214.5c0.55,0,1-0.45,1-1V74.209z"/>
		</g>
		<g>
			<path fill="#1A8EBD" d="M257.5,24.502c-0.55,0-1,0.45-1,1v12.293c0,0.55,0.318,0.682,0.707,0.293l12.879-12.879
				c0.389-0.389,0.257-0.707-0.293-0.707H257.5z"/>
		</g>
		<g>
			<path fill="#1A8EBD" d="M95.5,58.209c0-0.55-0.318-0.682-0.707-0.293L81.914,70.795c-0.389,0.389-0.257,0.707,0.293,0.707H94.5
				c0.55,0,1-0.45,1-1V58.209z"/>
		</g>
		<g>
			<path fill="#1A8EBD" d="M113.207,57.916c-0.389-0.389-0.707-0.257-0.707,0.293v12.293c0,0.55,0.45,1,1,1h12.293
				c0.55,0,0.682-0.318,0.293-0.707L113.207,57.916z"/>
		</g>
		<g>
			<path fill="#1A8EBD" d="M56.5,101.795c0,0.55,0.318,0.682,0.707,0.293l12.879-12.879c0.389-0.389,0.257-0.707-0.293-0.707H57.5
				c-0.55,0-1,0.45-1,1V101.795z"/>
		</g>
		<g>
			<path fill="#1A8EBD" d="M126.793,86.088c0.389,0.389,0.707,0.257,0.707-0.293V73.502c0-0.55-0.45-1-1-1h-12.293
				c-0.55,0-0.682,0.318-0.293,0.707L126.793,86.088z"/>
		</g>
		<g>
			<path fill="#1A8EBD" d="M54.5,103.502c0.55,0,1-0.45,1-1V90.209c0-0.55-0.318-0.682-0.707-0.293l-12.879,12.879
				c-0.389,0.389-0.257,0.707,0.293,0.707H54.5z"/>
		</g>
		<g>
			<path fill="#1A8EBD" d="M112.5,101.795c0,0.55,0.318,0.682,0.707,0.293l12.879-12.879c0.389-0.389,0.257-0.707-0.293-0.707H113.5
				c-0.55,0-1,0.45-1,1V101.795z"/>
		</g>
		<g>
			<path fill="#1A8EBD" d="M126.5,103.502c0.55,0,1-0.45,1-1V90.209c0-0.55-0.318-0.682-0.707-0.293l-12.879,12.879
				c-0.389,0.389-0.257,0.707,0.293,0.707H126.5z"/>
		</g>
		<g>
			<path fill="#1A8EBD" d="M41.5,88.502c-0.55,0-1,0.45-1,1v12.293c0,0.55,0.318,0.682,0.707,0.293l12.879-12.879
				c0.389-0.389,0.257-0.707-0.293-0.707H41.5z"/>
		</g>
		<g>
			<path fill="#1A8EBD" d="M113.207,73.916c-0.389-0.389-0.707-0.257-0.707,0.293v12.293c0,0.55,0.45,1,1,1h12.293
				c0.55,0,0.682-0.318,0.293-0.707L113.207,73.916z"/>
		</g>
		<g>
			<path fill="#1A8EBD" d="M54.5,71.502c0.55,0,1-0.45,1-1V58.209c0-0.55-0.318-0.682-0.707-0.293L41.914,70.795
				c-0.389,0.389-0.257,0.707,0.293,0.707H54.5z"/>
		</g>
		<g>
			<path fill="#1A8EBD" d="M96.5,70.502c0,0.55,0.45,1,1,1h12.293c0.55,0,0.682-0.318,0.293-0.707L97.207,57.916
				c-0.389-0.389-0.707-0.257-0.707,0.293V70.502z"/>
		</g>
		<g>
			<path fill="#1A8EBD" d="M39.5,74.209c0-0.55-0.318-0.682-0.707-0.293L25.914,86.795c-0.389,0.389-0.257,0.707,0.293,0.707H38.5
				c0.55,0,1-0.45,1-1V74.209z"/>
		</g>
		<g>
			<path fill="#1A8EBD" d="M41.5,56.502c-0.55,0-1,0.45-1,1v12.293c0,0.55,0.318,0.682,0.707,0.293l12.879-12.879
				c0.389-0.389,0.257-0.707-0.293-0.707H41.5z"/>
		</g>
		<g>
			<path fill="#1A8EBD" d="M136.5,86.502c0,0.55,0.45,1,1,1h12.293c0.55,0,0.682-0.318,0.293-0.707l-12.879-12.879
				c-0.389-0.389-0.707-0.257-0.707,0.293V86.502z"/>
		</g>
		<g>
			<path fill="#1A8EBD" d="M38.793,102.088c0.389,0.389,0.707,0.257,0.707-0.293V89.502c0-0.55-0.45-1-1-1H26.207
				c-0.55,0-0.682,0.318-0.293,0.707L38.793,102.088z"/>
		</g>
		<g>
			<path fill="#1A8EBD" d="M38.5,71.502c0.55,0,1-0.45,1-1V58.209c0-0.55-0.318-0.682-0.707-0.293L25.914,70.795
				c-0.389,0.389-0.257,0.707,0.293,0.707H38.5z"/>
		</g>
		<g>
			<path fill="#1A8EBD" d="M24.5,85.795c0,0.55,0.318,0.682,0.707,0.293l12.879-12.879c0.389-0.389,0.257-0.707-0.293-0.707H25.5
				c-0.55,0-1,0.45-1,1V85.795z"/>
		</g>
		<g>
			<path fill="#1A8EBD" d="M56.5,70.502c0,0.55,0.45,1,1,1h12.293c0.55,0,0.682-0.318,0.293-0.707L57.207,57.916
				c-0.389-0.389-0.707-0.257-0.707,0.293V70.502z"/>
		</g>
		<g>
			<path fill="#1A8EBD" d="M150.5,71.502c0.55,0,1-0.45,1-1V58.209c0-0.55-0.318-0.682-0.707-0.293l-12.879,12.879
				c-0.389,0.389-0.257,0.707,0.293,0.707H150.5z"/>
		</g>
		<g>
			<path fill="#1A8EBD" d="M94.793,86.088c0.389,0.389,0.707,0.257,0.707-0.293V73.502c0-0.55-0.45-1-1-1H82.207
				c-0.55,0-0.682,0.318-0.293,0.707L94.793,86.088z"/>
		</g>
		<g>
			<path fill="#1A8EBD" d="M136.5,101.795c0,0.55,0.318,0.682,0.707,0.293l12.879-12.879c0.389-0.389,0.257-0.707-0.293-0.707H137.5
				c-0.55,0-1,0.45-1,1V101.795z"/>
		</g>
		<g>
			<path fill="#1A8EBD" d="M151.5,73.502c0-0.55-0.45-1-1-1h-12.293c-0.55,0-0.682,0.318-0.293,0.707l12.879,12.879
				c0.389,0.389,0.707,0.257,0.707-0.293V73.502z"/>
		</g>
		<g>
			<path fill="#1A8EBD" d="M150.5,103.502c0.55,0,1-0.45,1-1V90.209c0-0.55-0.318-0.682-0.707-0.293l-12.879,12.879
				c-0.389,0.389-0.257,0.707,0.293,0.707H150.5z"/>
		</g>
		<g>
			<path fill="#1A8EBD" d="M137.5,56.502c-0.55,0-1,0.45-1,1v12.293c0,0.55,0.318,0.682,0.707,0.293l12.879-12.879
				c0.389-0.389,0.257-0.707-0.293-0.707H137.5z"/>
		</g>
		<g>
			<path fill="#1A8EBD" d="M80.5,54.502c0,0.55,0.45,1,1,1h12.293c0.55,0,0.682-0.318,0.293-0.707L81.207,41.916
				c-0.389-0.389-0.707-0.257-0.707,0.293V54.502z"/>
		</g>
		<g>
			<path fill="#1A8EBD" d="M81.5,24.502c-0.55,0-1,0.45-1,1v12.293c0,0.55,0.318,0.682,0.707,0.293l12.879-12.879
				c0.389-0.389,0.257-0.707-0.293-0.707H81.5z"/>
		</g>
		<g>
			<path fill="#1A8EBD" d="M80.5,101.795c0,0.55,0.318,0.682,0.707,0.293l12.879-12.879c0.389-0.389,0.257-0.707-0.293-0.707H81.5
				c-0.55,0-1,0.45-1,1V101.795z"/>
		</g>
		<g>
			<path fill="#1A8EBD" d="M94.5,39.502c0.55,0,1-0.45,1-1V26.209c0-0.55-0.318-0.682-0.707-0.293L81.914,38.795
				c-0.389,0.389-0.257,0.707,0.293,0.707H94.5z"/>
		</g>
		<g>
			<path fill="#1A8EBD" d="M94.5,103.502c0.55,0,1-0.45,1-1V90.209c0-0.55-0.318-0.682-0.707-0.293l-12.879,12.879
				c-0.389,0.389-0.257,0.707,0.293,0.707H94.5z"/>
		</g>
		<g>
			<path fill="#1A8EBD" d="M95.5,41.502c0-0.55-0.45-1-1-1H82.207c-0.55,0-0.682,0.318-0.293,0.707l12.879,12.879
				c0.389,0.389,0.707,0.257,0.707-0.293V41.502z"/>
		</g>
		<g>
			<path fill="#1A8EBD" d="M80.5,86.502c0,0.55,0.45,1,1,1h12.293c0.55,0,0.682-0.318,0.293-0.707L81.207,73.916
				c-0.389-0.389-0.707-0.257-0.707,0.293V86.502z"/>
		</g>
		<g>
			<path fill="#1A8EBD" d="M111.5,57.502c0-0.55-0.45-1-1-1H98.207c-0.55,0-0.682,0.318-0.293,0.707l12.879,12.879
				c0.389,0.389,0.707,0.257,0.707-0.293V57.502z"/>
		</g>
		<g>
			<path fill="#1A8EBD" d="M80.5,69.795c0,0.55,0.318,0.682,0.707,0.293l12.879-12.879c0.389-0.389,0.257-0.707-0.293-0.707H81.5
				c-0.55,0-1,0.45-1,1V69.795z"/>
		</g>
	</g>
</g>
</svg>
