<?xml version="1.0" encoding="utf-8"?>
<!-- Generator: Adobe Illustrator 16.0.0, SVG Export Plug-In . SVG Version: 6.00 Build 0)  -->
<!DOCTYPE svg PUBLIC "-//W3C//DTD SVG 1.1//EN" "http://www.w3.org/Graphics/SVG/1.1/DTD/svg11.dtd">
<svg version="1.1" id="Layer_1" xmlns="http://www.w3.org/2000/svg" xmlns:xlink="http://www.w3.org/1999/xlink" x="0px" y="0px"
	 width="320px" height="320px" viewBox="0 0 320 320" enable-background="new 0 0 320 320" xml:space="preserve">
<g id="Flat_Color">
	<g>
		<polygon fill="none" points="160,168 176,184 160,184 160,200 176,200 192,184 176,168 192,168 192,152 176,152 		"/>
		<path fill="none" d="M232,152h-16l-16,16v16l16,16h16l16-16h-16l16-16L232,152z M216,184v-16h16L216,184z"/>
		<polygon fill="none" points="288,184.002 272,184.002 272,184 272,168 272,152 272,136 272,120 256,120 256,136 256,152 256,168 
			256,184 256,200 272,200 272,200.002 		"/>
		<polygon fill="none" points="136,168 136,184 136,200 152,200 152,184 152,168 152,152 136,152 		"/>
		<polygon fill="none" points="136,144 152,144 136,128 		"/>
		<polygon fill="none" points="96,152 96,136 96,120 80,120 80,136 80,152 80,168 80,184 80,200 96,200 96,184 96,168 112,168 
			112,184 112,200 128,200 128,184 128,168 112,152 		"/>
		<polygon fill="none" points="56,168 72,168 56,152 40,152 24,168 24,184 40,200 56,200 72,184 56,184 40,184 40,168 		"/>
	</g>
	<g>
		<g>
			<path fill="#1A8EBD" d="M232.5,181.795c0,0.55,0.318,0.682,0.707,0.293l12.879-12.879c0.389-0.389,0.257-0.707-0.293-0.707H233.5
				c-0.55,0-1,0.45-1,1V181.795z"/>
		</g>
		<g>
			<path fill="#1A8EBD" d="M174.5,199.502c0.55,0,1-0.45,1-1v-12.293c0-0.55-0.318-0.682-0.707-0.293l-12.879,12.879
				c-0.389,0.389-0.257,0.707,0.293,0.707H174.5z"/>
		</g>
		<g>
			<path fill="#1A8EBD" d="M230.5,167.502c0.55,0,1-0.45,1-1v-12.293c0-0.55-0.318-0.682-0.707-0.293l-12.879,12.879
				c-0.389,0.389-0.257,0.707,0.293,0.707H230.5z"/>
		</g>
		<g>
			<path fill="#1A8EBD" d="M232.5,166.502c0,0.55,0.45,1,1,1h12.293c0.55,0,0.682-0.318,0.293-0.707l-12.879-12.879
				c-0.389-0.389-0.707-0.257-0.707,0.293V166.502z"/>
		</g>
		<g>
			<path fill="#1A8EBD" d="M200.5,181.795c0,0.55,0.318,0.682,0.707,0.293l12.879-12.879c0.389-0.389,0.257-0.707-0.293-0.707H201.5
				c-0.55,0-1,0.45-1,1V181.795z"/>
		</g>
		<g>
			<path fill="#1A8EBD" d="M214.5,167.502c0.55,0,1-0.45,1-1v-12.293c0-0.55-0.318-0.682-0.707-0.293l-12.879,12.879
				c-0.389,0.389-0.257,0.707,0.293,0.707H214.5z"/>
		</g>
		<g>
			<path fill="#1A8EBD" d="M217.5,152.502c-0.55,0-1,0.45-1,1v12.293c0,0.55,0.318,0.682,0.707,0.293l12.879-12.879
				c0.389-0.389,0.257-0.707-0.293-0.707H217.5z"/>
		</g>
		<g>
			<path fill="#1A8EBD" d="M176.5,197.795c0,0.55,0.318,0.682,0.707,0.293l12.879-12.879c0.389-0.389,0.257-0.707-0.293-0.707H177.5
				c-0.55,0-1,0.45-1,1V197.795z"/>
		</g>
		<g>
			<path fill="#1A8EBD" d="M190.5,167.502c0.55,0,1-0.45,1-1v-12.293c0-0.55-0.318-0.682-0.707-0.293l-12.879,12.879
				c-0.389,0.389-0.257,0.707,0.293,0.707H190.5z"/>
		</g>
		<g>
			<path fill="#1A8EBD" d="M176.5,182.502c0,0.55,0.45,1,1,1h12.293c0.55,0,0.682-0.318,0.293-0.707l-12.879-12.879
				c-0.389-0.389-0.707-0.257-0.707,0.293V182.502z"/>
		</g>
		<g>
			<path fill="#1A8EBD" d="M161.5,184.502c-0.55,0-1,0.45-1,1v12.293c0,0.55,0.318,0.682,0.707,0.293l12.879-12.879
				c0.389-0.389,0.257-0.707-0.293-0.707H161.5z"/>
		</g>
		<g>
			<path fill="#1A8EBD" d="M177.5,152.502c-0.55,0-1,0.45-1,1v12.293c0,0.55,0.318,0.682,0.707,0.293l12.879-12.879
				c0.389-0.389,0.257-0.707-0.293-0.707H177.5z"/>
		</g>
		<g>
			<path fill="#1A8EBD" d="M214.793,198.088c0.389,0.389,0.707,0.257,0.707-0.293v-12.293c0-0.55-0.45-1-1-1h-12.293
				c-0.55,0-0.682,0.318-0.293,0.707L214.793,198.088z"/>
		</g>
		<g>
			<path fill="#1A8EBD" d="M175.5,154.209c0-0.55-0.318-0.682-0.707-0.293l-12.879,12.879c-0.389,0.389-0.257,0.707,0.293,0.707
				H174.5c0.55,0,1-0.45,1-1V154.209z"/>
		</g>
		<g>
			<path fill="#1A8EBD" d="M175.5,169.502c0-0.55-0.45-1-1-1h-12.293c-0.55,0-0.682,0.318-0.293,0.707l12.879,12.879
				c0.389,0.389,0.707,0.257,0.707-0.293V169.502z"/>
		</g>
		<g>
			<path fill="#1A8EBD" d="M271.5,169.502c0-0.55-0.45-1-1-1h-12.293c-0.55,0-0.682,0.318-0.293,0.707l12.879,12.879
				c0.389,0.389,0.707,0.257,0.707-0.293V169.502z"/>
		</g>
		<g>
			<path fill="#CA2027" d="M136.5,142.502c0,0.55,0.45,1,1,1h12.293c0.55,0,0.682-0.318,0.293-0.707l-12.879-12.879
				c-0.389-0.389-0.707-0.257-0.707,0.293V142.502z"/>
		</g>
		<g>
			<path fill="#1A8EBD" d="M256.5,182.502c0,0.55,0.45,1,1,1h12.293c0.55,0,0.682-0.318,0.293-0.707l-12.879-12.879
				c-0.389-0.389-0.707-0.257-0.707,0.293V182.502z"/>
		</g>
		<g>
			<path fill="#1A8EBD" d="M270.5,199.502c0.55,0,1-0.45,1-1v-12.293c0-0.55-0.318-0.682-0.707-0.293l-12.879,12.879
				c-0.389,0.389-0.257,0.707,0.293,0.707H270.5z"/>
		</g>
		<g>
			<path fill="#1A8EBD" d="M271.5,137.502c0-0.55-0.45-1-1-1h-12.293c-0.55,0-0.682,0.318-0.293,0.707l12.879,12.879
				c0.389,0.389,0.707,0.257,0.707-0.293V137.502z"/>
		</g>
		<g>
			<path fill="#1A8EBD" d="M271.5,154.209c0-0.55-0.318-0.682-0.707-0.293l-12.879,12.879c-0.389,0.389-0.257,0.707,0.293,0.707
				H270.5c0.55,0,1-0.45,1-1V154.209z"/>
		</g>
		<g>
			<path fill="#1A8EBD" d="M286.086,185.211c0.389-0.389,0.257-0.707-0.293-0.707H273.5c-0.55,0-1,0.45-1,1v12.293
				c0,0.55,0.318,0.682,0.707,0.293L286.086,185.211z"/>
		</g>
		<g>
			<path fill="#1A8EBD" d="M257.207,137.916c-0.389-0.389-0.707-0.257-0.707,0.293v12.293c0,0.55,0.45,1,1,1h12.293
				c0.55,0,0.682-0.318,0.293-0.707L257.207,137.916z"/>
		</g>
		<g>
			<path fill="#1A8EBD" d="M256.5,165.795c0,0.55,0.318,0.682,0.707,0.293l12.879-12.879c0.389-0.389,0.257-0.707-0.293-0.707H257.5
				c-0.55,0-1,0.45-1,1V165.795z"/>
		</g>
		<g>
			<path fill="#1A8EBD" d="M232.5,197.795c0,0.55,0.318,0.682,0.707,0.293l12.879-12.879c0.389-0.389,0.257-0.707-0.293-0.707H233.5
				c-0.55,0-1,0.45-1,1V197.795z"/>
		</g>
		<g>
			<path fill="#1A8EBD" d="M231.5,186.209c0-0.55-0.318-0.682-0.707-0.293l-12.879,12.879c-0.389,0.389-0.257,0.707,0.293,0.707
				H230.5c0.55,0,1-0.45,1-1V186.209z"/>
		</g>
		<g>
			<path fill="#1A8EBD" d="M230.5,183.502c0.55,0,1-0.45,1-1v-12.293c0-0.55-0.318-0.682-0.707-0.293l-12.879,12.879
				c-0.389,0.389-0.257,0.707,0.293,0.707H230.5z"/>
		</g>
		<g>
			<path fill="#1A8EBD" d="M216.5,197.795c0,0.55,0.318,0.682,0.707,0.293l12.879-12.879c0.389-0.389,0.257-0.707-0.293-0.707H217.5
				c-0.55,0-1,0.45-1,1V197.795z"/>
		</g>
		<g>
			<path fill="#1A8EBD" d="M257.5,184.502c-0.55,0-1,0.45-1,1v12.293c0,0.55,0.318,0.682,0.707,0.293l12.879-12.879
				c0.389-0.389,0.257-0.707-0.293-0.707H257.5z"/>
		</g>
		<g>
			<path fill="#1A8EBD" d="M271.5,122.209c0-0.55-0.318-0.682-0.707-0.293l-12.879,12.879c-0.389,0.389-0.257,0.707,0.293,0.707
				H270.5c0.55,0,1-0.45,1-1V122.209z"/>
		</g>
		<g>
			<path fill="#1A8EBD" d="M215.5,170.209c0-0.55-0.318-0.682-0.707-0.293l-12.879,12.879c-0.389,0.389-0.257,0.707,0.293,0.707
				H214.5c0.55,0,1-0.45,1-1V170.209z"/>
		</g>
		<g>
			<path fill="#1A8EBD" d="M257.5,120.502c-0.55,0-1,0.45-1,1v12.293c0,0.55,0.318,0.682,0.707,0.293l12.879-12.879
				c0.389-0.389,0.257-0.707-0.293-0.707H257.5z"/>
		</g>
		<g>
			<path fill="#1A8EBD" d="M95.5,154.209c0-0.55-0.318-0.682-0.707-0.293l-12.879,12.879c-0.389,0.389-0.257,0.707,0.293,0.707H94.5
				c0.55,0,1-0.45,1-1V154.209z"/>
		</g>
		<g>
			<path fill="#1A8EBD" d="M113.207,153.916c-0.389-0.389-0.707-0.257-0.707,0.293v12.293c0,0.55,0.45,1,1,1h12.293
				c0.55,0,0.682-0.318,0.293-0.707L113.207,153.916z"/>
		</g>
		<g>
			<path fill="#1A8EBD" d="M56.5,197.795c0,0.55,0.318,0.682,0.707,0.293l12.879-12.879c0.389-0.389,0.257-0.707-0.293-0.707H57.5
				c-0.55,0-1,0.45-1,1V197.795z"/>
		</g>
		<g>
			<path fill="#1A8EBD" d="M126.793,182.088c0.389,0.389,0.707,0.257,0.707-0.293v-12.293c0-0.55-0.45-1-1-1h-12.293
				c-0.55,0-0.682,0.318-0.293,0.707L126.793,182.088z"/>
		</g>
		<g>
			<path fill="#1A8EBD" d="M54.5,199.502c0.55,0,1-0.45,1-1v-12.293c0-0.55-0.318-0.682-0.707-0.293l-12.879,12.879
				c-0.389,0.389-0.257,0.707,0.293,0.707H54.5z"/>
		</g>
		<g>
			<path fill="#1A8EBD" d="M112.5,197.795c0,0.55,0.318,0.682,0.707,0.293l12.879-12.879c0.389-0.389,0.257-0.707-0.293-0.707H113.5
				c-0.55,0-1,0.45-1,1V197.795z"/>
		</g>
		<g>
			<path fill="#1A8EBD" d="M126.5,199.502c0.55,0,1-0.45,1-1v-12.293c0-0.55-0.318-0.682-0.707-0.293l-12.879,12.879
				c-0.389,0.389-0.257,0.707,0.293,0.707H126.5z"/>
		</g>
		<g>
			<path fill="#1A8EBD" d="M41.5,184.502c-0.55,0-1,0.45-1,1v12.293c0,0.55,0.318,0.682,0.707,0.293l12.879-12.879
				c0.389-0.389,0.257-0.707-0.293-0.707H41.5z"/>
		</g>
		<g>
			<path fill="#1A8EBD" d="M113.207,169.916c-0.389-0.389-0.707-0.257-0.707,0.293v12.293c0,0.55,0.45,1,1,1h12.293
				c0.55,0,0.682-0.318,0.293-0.707L113.207,169.916z"/>
		</g>
		<g>
			<path fill="#1A8EBD" d="M54.5,167.502c0.55,0,1-0.45,1-1v-12.293c0-0.55-0.318-0.682-0.707-0.293l-12.879,12.879
				c-0.389,0.389-0.257,0.707,0.293,0.707H54.5z"/>
		</g>
		<g>
			<path fill="#1A8EBD" d="M96.5,166.502c0,0.55,0.45,1,1,1h12.293c0.55,0,0.682-0.318,0.293-0.707l-12.879-12.879
				c-0.389-0.389-0.707-0.257-0.707,0.293V166.502z"/>
		</g>
		<g>
			<path fill="#1A8EBD" d="M39.5,170.209c0-0.55-0.318-0.682-0.707-0.293l-12.879,12.879c-0.389,0.389-0.257,0.707,0.293,0.707H38.5
				c0.55,0,1-0.45,1-1V170.209z"/>
		</g>
		<g>
			<path fill="#1A8EBD" d="M41.5,152.502c-0.55,0-1,0.45-1,1v12.293c0,0.55,0.318,0.682,0.707,0.293l12.879-12.879
				c0.389-0.389,0.257-0.707-0.293-0.707H41.5z"/>
		</g>
		<g>
			<path fill="#1A8EBD" d="M136.5,182.502c0,0.55,0.45,1,1,1h12.293c0.55,0,0.682-0.318,0.293-0.707l-12.879-12.879
				c-0.389-0.389-0.707-0.257-0.707,0.293V182.502z"/>
		</g>
		<g>
			<path fill="#1A8EBD" d="M38.793,198.088c0.389,0.389,0.707,0.257,0.707-0.293v-12.293c0-0.55-0.45-1-1-1H26.207
				c-0.55,0-0.682,0.318-0.293,0.707L38.793,198.088z"/>
		</g>
		<g>
			<path fill="#1A8EBD" d="M38.5,167.502c0.55,0,1-0.45,1-1v-12.293c0-0.55-0.318-0.682-0.707-0.293l-12.879,12.879
				c-0.389,0.389-0.257,0.707,0.293,0.707H38.5z"/>
		</g>
		<g>
			<path fill="#1A8EBD" d="M24.5,181.795c0,0.55,0.318,0.682,0.707,0.293l12.879-12.879c0.389-0.389,0.257-0.707-0.293-0.707H25.5
				c-0.55,0-1,0.45-1,1V181.795z"/>
		</g>
		<g>
			<path fill="#1A8EBD" d="M56.5,166.502c0,0.55,0.45,1,1,1h12.293c0.55,0,0.682-0.318,0.293-0.707l-12.879-12.879
				c-0.389-0.389-0.707-0.257-0.707,0.293V166.502z"/>
		</g>
		<g>
			<path fill="#1A8EBD" d="M150.5,167.502c0.55,0,1-0.45,1-1v-12.293c0-0.55-0.318-0.682-0.707-0.293l-12.879,12.879
				c-0.389,0.389-0.257,0.707,0.293,0.707H150.5z"/>
		</g>
		<g>
			<path fill="#1A8EBD" d="M94.793,182.088c0.389,0.389,0.707,0.257,0.707-0.293v-12.293c0-0.55-0.45-1-1-1H82.207
				c-0.55,0-0.682,0.318-0.293,0.707L94.793,182.088z"/>
		</g>
		<g>
			<path fill="#1A8EBD" d="M136.5,197.795c0,0.55,0.318,0.682,0.707,0.293l12.879-12.879c0.389-0.389,0.257-0.707-0.293-0.707H137.5
				c-0.55,0-1,0.45-1,1V197.795z"/>
		</g>
		<g>
			<path fill="#1A8EBD" d="M151.5,169.502c0-0.55-0.45-1-1-1h-12.293c-0.55,0-0.682,0.318-0.293,0.707l12.879,12.879
				c0.389,0.389,0.707,0.257,0.707-0.293V169.502z"/>
		</g>
		<g>
			<path fill="#1A8EBD" d="M150.5,199.502c0.55,0,1-0.45,1-1v-12.293c0-0.55-0.318-0.682-0.707-0.293l-12.879,12.879
				c-0.389,0.389-0.257,0.707,0.293,0.707H150.5z"/>
		</g>
		<g>
			<path fill="#1A8EBD" d="M137.5,152.502c-0.55,0-1,0.45-1,1v12.293c0,0.55,0.318,0.682,0.707,0.293l12.879-12.879
				c0.389-0.389,0.257-0.707-0.293-0.707H137.5z"/>
		</g>
		<g>
			<path fill="#1A8EBD" d="M80.5,150.502c0,0.55,0.45,1,1,1h12.293c0.55,0,0.682-0.318,0.293-0.707l-12.879-12.879
				c-0.389-0.389-0.707-0.257-0.707,0.293V150.502z"/>
		</g>
		<g>
			<path fill="#1A8EBD" d="M81.5,120.502c-0.55,0-1,0.45-1,1v12.293c0,0.55,0.318,0.682,0.707,0.293l12.879-12.879
				c0.389-0.389,0.257-0.707-0.293-0.707H81.5z"/>
		</g>
		<g>
			<path fill="#1A8EBD" d="M80.5,197.795c0,0.55,0.318,0.682,0.707,0.293l12.879-12.879c0.389-0.389,0.257-0.707-0.293-0.707H81.5
				c-0.55,0-1,0.45-1,1V197.795z"/>
		</g>
		<g>
			<path fill="#1A8EBD" d="M94.5,135.502c0.55,0,1-0.45,1-1v-12.293c0-0.55-0.318-0.682-0.707-0.293l-12.879,12.879
				c-0.389,0.389-0.257,0.707,0.293,0.707H94.5z"/>
		</g>
		<g>
			<path fill="#1A8EBD" d="M94.5,199.502c0.55,0,1-0.45,1-1v-12.293c0-0.55-0.318-0.682-0.707-0.293l-12.879,12.879
				c-0.389,0.389-0.257,0.707,0.293,0.707H94.5z"/>
		</g>
		<g>
			<path fill="#1A8EBD" d="M95.5,137.502c0-0.55-0.45-1-1-1H82.207c-0.55,0-0.682,0.318-0.293,0.707l12.879,12.879
				c0.389,0.389,0.707,0.257,0.707-0.293V137.502z"/>
		</g>
		<g>
			<path fill="#1A8EBD" d="M80.5,182.502c0,0.55,0.45,1,1,1h12.293c0.55,0,0.682-0.318,0.293-0.707l-12.879-12.879
				c-0.389-0.389-0.707-0.257-0.707,0.293V182.502z"/>
		</g>
		<g>
			<path fill="#1A8EBD" d="M111.5,153.502c0-0.55-0.45-1-1-1H98.207c-0.55,0-0.682,0.318-0.293,0.707l12.879,12.879
				c0.389,0.389,0.707,0.257,0.707-0.293V153.502z"/>
		</g>
		<g>
			<path fill="#1A8EBD" d="M80.5,165.795c0,0.55,0.318,0.682,0.707,0.293l12.879-12.879c0.389-0.389,0.257-0.707-0.293-0.707H81.5
				c-0.55,0-1,0.45-1,1V165.795z"/>
		</g>
	</g>
</g>
</svg>
