<?xml version="1.0" encoding="utf-8"?>
<!-- Generator: Adobe Illustrator 16.0.0, SVG Export Plug-In . SVG Version: 6.00 Build 0)  -->
<!DOCTYPE svg PUBLIC "-//W3C//DTD SVG 1.1//EN" "http://www.w3.org/Graphics/SVG/1.1/DTD/svg11.dtd">
<svg version="1.1" id="Layer_1" xmlns="http://www.w3.org/2000/svg" xmlns:xlink="http://www.w3.org/1999/xlink" x="0px" y="0px"
	 width="320px" height="128px" viewBox="0 0 320 128" enable-background="new 0 0 320 128" xml:space="preserve">
<g>
	<g>
		<polygon fill="none" points="160,71.998 176,87.998 160,87.998 160,103.998 176,103.998 192,87.998 176,71.998 192,71.998 
			192,55.998 176,55.998 		"/>
		<path fill="none" d="M232,55.998h-16l-16,16v16l16,16h16l16-16h-16l16-16L232,55.998z M216,87.998v-16h16L216,87.998z"/>
		<polygon fill="none" points="288,88 272,88 272,87.998 272,71.998 272,55.998 272,39.998 272,23.998 256,23.998 256,39.998 
			256,55.998 256,71.998 256,87.998 256,103.998 272,103.998 272,104 		"/>
		<polygon fill="none" points="136,71.998 136,87.998 136,103.998 152,103.998 152,87.998 152,71.998 152,55.998 136,55.998 		"/>
		<polygon fill="none" points="136,47.998 152,47.998 136,31.998 		"/>
		<polygon fill="none" points="96,55.998 96,39.998 96,23.998 80,23.998 80,39.998 80,55.998 80,71.998 80,87.998 80,103.998 
			96,103.998 96,87.998 96,71.998 112,71.998 112,87.998 112,103.998 128,103.998 128,87.998 128,71.998 112,55.998 		"/>
		<polygon fill="none" points="56,71.998 72,71.998 56,55.998 40,55.998 24,71.998 24,87.998 40,103.998 56,103.998 72,87.998 
			56,87.998 40,87.998 40,71.998 		"/>
	</g>
	<g>
		<g>
			<g>
				<path fill="#FFFFFF" d="M232.5,85.793c0,0.55,0.318,0.682,0.707,0.293l12.879-12.879c0.389-0.389,0.257-0.707-0.293-0.707H233.5
					c-0.55,0-1,0.45-1,1V85.793z"/>
			</g>
			<g>
				<path fill="#FFFFFF" d="M174.5,103.5c0.55,0,1-0.45,1-1V90.207c0-0.55-0.318-0.682-0.707-0.293l-12.879,12.879
					c-0.389,0.389-0.257,0.707,0.293,0.707H174.5z"/>
			</g>
			<g>
				<path fill="#FFFFFF" d="M230.5,71.5c0.55,0,1-0.45,1-1V58.207c0-0.55-0.318-0.682-0.707-0.293l-12.879,12.879
					c-0.389,0.389-0.257,0.707,0.293,0.707H230.5z"/>
			</g>
			<g>
				<path fill="#FFFFFF" d="M232.5,70.5c0,0.55,0.45,1,1,1h12.293c0.55,0,0.682-0.318,0.293-0.707l-12.879-12.879
					c-0.389-0.389-0.707-0.257-0.707,0.293V70.5z"/>
			</g>
			<g>
				<path fill="#FFFFFF" d="M200.5,85.793c0,0.55,0.318,0.682,0.707,0.293l12.879-12.879c0.389-0.389,0.257-0.707-0.293-0.707H201.5
					c-0.55,0-1,0.45-1,1V85.793z"/>
			</g>
			<g>
				<path fill="#FFFFFF" d="M214.5,71.5c0.55,0,1-0.45,1-1V58.207c0-0.55-0.318-0.682-0.707-0.293l-12.879,12.879
					c-0.389,0.389-0.257,0.707,0.293,0.707H214.5z"/>
			</g>
			<g>
				<path fill="#FFFFFF" d="M217.5,56.5c-0.55,0-1,0.45-1,1v12.293c0,0.55,0.318,0.682,0.707,0.293l12.879-12.879
					c0.389-0.389,0.257-0.707-0.293-0.707H217.5z"/>
			</g>
			<g>
				<path fill="#FFFFFF" d="M176.5,101.793c0,0.55,0.318,0.682,0.707,0.293l12.879-12.879c0.389-0.389,0.257-0.707-0.293-0.707
					H177.5c-0.55,0-1,0.45-1,1V101.793z"/>
			</g>
			<g>
				<path fill="#FFFFFF" d="M190.5,71.5c0.55,0,1-0.45,1-1V58.207c0-0.55-0.318-0.682-0.707-0.293l-12.879,12.879
					c-0.389,0.389-0.257,0.707,0.293,0.707H190.5z"/>
			</g>
			<g>
				<path fill="#FFFFFF" d="M176.5,86.5c0,0.55,0.45,1,1,1h12.293c0.55,0,0.682-0.318,0.293-0.707l-12.879-12.879
					c-0.389-0.389-0.707-0.257-0.707,0.293V86.5z"/>
			</g>
			<g>
				<path fill="#FFFFFF" d="M161.5,88.5c-0.55,0-1,0.45-1,1v12.293c0,0.55,0.318,0.682,0.707,0.293l12.879-12.879
					c0.389-0.389,0.257-0.707-0.293-0.707H161.5z"/>
			</g>
			<g>
				<path fill="#FFFFFF" d="M177.5,56.5c-0.55,0-1,0.45-1,1v12.293c0,0.55,0.318,0.682,0.707,0.293l12.879-12.879
					c0.389-0.389,0.257-0.707-0.293-0.707H177.5z"/>
			</g>
			<g>
				<path fill="#FFFFFF" d="M214.793,102.086c0.389,0.389,0.707,0.257,0.707-0.293V89.5c0-0.55-0.45-1-1-1h-12.293
					c-0.55,0-0.682,0.318-0.293,0.707L214.793,102.086z"/>
			</g>
			<g>
				<path fill="#FFFFFF" d="M175.5,58.207c0-0.55-0.318-0.682-0.707-0.293l-12.879,12.879c-0.389,0.389-0.257,0.707,0.293,0.707
					H174.5c0.55,0,1-0.45,1-1V58.207z"/>
			</g>
			<g>
				<path fill="#FFFFFF" d="M175.5,73.5c0-0.55-0.45-1-1-1h-12.293c-0.55,0-0.682,0.318-0.293,0.707l12.879,12.879
					c0.389,0.389,0.707,0.257,0.707-0.293V73.5z"/>
			</g>
			<g>
				<path fill="#FFFFFF" d="M271.5,73.5c0-0.55-0.45-1-1-1h-12.293c-0.55,0-0.682,0.318-0.293,0.707l12.879,12.879
					c0.389,0.389,0.707,0.257,0.707-0.293V73.5z"/>
			</g>
			<g>
				<path fill="#CA2027" d="M136.5,46.5c0,0.55,0.45,1,1,1h12.293c0.55,0,0.682-0.318,0.293-0.707l-12.879-12.879
					c-0.389-0.389-0.707-0.257-0.707,0.293V46.5z"/>
			</g>
			<g>
				<path fill="#FFFFFF" d="M256.5,86.5c0,0.55,0.45,1,1,1h12.293c0.55,0,0.682-0.318,0.293-0.707l-12.879-12.879
					c-0.389-0.389-0.707-0.257-0.707,0.293V86.5z"/>
			</g>
			<g>
				<path fill="#FFFFFF" d="M270.5,103.5c0.55,0,1-0.45,1-1V90.207c0-0.55-0.318-0.682-0.707-0.293l-12.879,12.879
					c-0.389,0.389-0.257,0.707,0.293,0.707H270.5z"/>
			</g>
			<g>
				<path fill="#FFFFFF" d="M271.5,41.5c0-0.55-0.45-1-1-1h-12.293c-0.55,0-0.682,0.318-0.293,0.707l12.879,12.879
					c0.389,0.389,0.707,0.257,0.707-0.293V41.5z"/>
			</g>
			<g>
				<path fill="#FFFFFF" d="M271.5,58.207c0-0.55-0.318-0.682-0.707-0.293l-12.879,12.879c-0.389,0.389-0.257,0.707,0.293,0.707
					H270.5c0.55,0,1-0.45,1-1V58.207z"/>
			</g>
			<g>
				<path fill="#FFFFFF" d="M286.086,89.209c0.389-0.389,0.257-0.707-0.293-0.707H273.5c-0.55,0-1,0.45-1,1v12.293
					c0,0.55,0.318,0.682,0.707,0.293L286.086,89.209z"/>
			</g>
			<g>
				<path fill="#FFFFFF" d="M257.207,41.914c-0.389-0.389-0.707-0.257-0.707,0.293V54.5c0,0.55,0.45,1,1,1h12.293
					c0.55,0,0.682-0.318,0.293-0.707L257.207,41.914z"/>
			</g>
			<g>
				<path fill="#FFFFFF" d="M256.5,69.793c0,0.55,0.318,0.682,0.707,0.293l12.879-12.879c0.389-0.389,0.257-0.707-0.293-0.707H257.5
					c-0.55,0-1,0.45-1,1V69.793z"/>
			</g>
			<g>
				<path fill="#FFFFFF" d="M232.5,101.793c0,0.55,0.318,0.682,0.707,0.293l12.879-12.879c0.389-0.389,0.257-0.707-0.293-0.707
					H233.5c-0.55,0-1,0.45-1,1V101.793z"/>
			</g>
			<g>
				<path fill="#FFFFFF" d="M231.5,90.207c0-0.55-0.318-0.682-0.707-0.293l-12.879,12.879c-0.389,0.389-0.257,0.707,0.293,0.707
					H230.5c0.55,0,1-0.45,1-1V90.207z"/>
			</g>
			<g>
				<path fill="#FFFFFF" d="M230.5,87.5c0.55,0,1-0.45,1-1V74.207c0-0.55-0.318-0.682-0.707-0.293l-12.879,12.879
					c-0.389,0.389-0.257,0.707,0.293,0.707H230.5z"/>
			</g>
			<g>
				<path fill="#FFFFFF" d="M216.5,101.793c0,0.55,0.318,0.682,0.707,0.293l12.879-12.879c0.389-0.389,0.257-0.707-0.293-0.707
					H217.5c-0.55,0-1,0.45-1,1V101.793z"/>
			</g>
			<g>
				<path fill="#FFFFFF" d="M257.5,88.5c-0.55,0-1,0.45-1,1v12.293c0,0.55,0.318,0.682,0.707,0.293l12.879-12.879
					c0.389-0.389,0.257-0.707-0.293-0.707H257.5z"/>
			</g>
			<g>
				<path fill="#FFFFFF" d="M271.5,26.207c0-0.55-0.318-0.682-0.707-0.293l-12.879,12.879c-0.389,0.389-0.257,0.707,0.293,0.707
					H270.5c0.55,0,1-0.45,1-1V26.207z"/>
			</g>
			<g>
				<path fill="#FFFFFF" d="M215.5,74.207c0-0.55-0.318-0.682-0.707-0.293l-12.879,12.879c-0.389,0.389-0.257,0.707,0.293,0.707
					H214.5c0.55,0,1-0.45,1-1V74.207z"/>
			</g>
			<g>
				<path fill="#FFFFFF" d="M257.5,24.5c-0.55,0-1,0.45-1,1v12.293c0,0.55,0.318,0.682,0.707,0.293l12.879-12.879
					c0.389-0.389,0.257-0.707-0.293-0.707H257.5z"/>
			</g>
			<g>
				<path fill="#FFFFFF" d="M95.5,58.207c0-0.55-0.318-0.682-0.707-0.293L81.914,70.793c-0.389,0.389-0.257,0.707,0.293,0.707H94.5
					c0.55,0,1-0.45,1-1V58.207z"/>
			</g>
			<g>
				<path fill="#FFFFFF" d="M113.207,57.914c-0.389-0.389-0.707-0.257-0.707,0.293V70.5c0,0.55,0.45,1,1,1h12.293
					c0.55,0,0.682-0.318,0.293-0.707L113.207,57.914z"/>
			</g>
			<g>
				<path fill="#FFFFFF" d="M56.5,101.793c0,0.55,0.318,0.682,0.707,0.293l12.879-12.879c0.389-0.389,0.257-0.707-0.293-0.707H57.5
					c-0.55,0-1,0.45-1,1V101.793z"/>
			</g>
			<g>
				<path fill="#FFFFFF" d="M126.793,86.086c0.389,0.389,0.707,0.257,0.707-0.293V73.5c0-0.55-0.45-1-1-1h-12.293
					c-0.55,0-0.682,0.318-0.293,0.707L126.793,86.086z"/>
			</g>
			<g>
				<path fill="#FFFFFF" d="M54.5,103.5c0.55,0,1-0.45,1-1V90.207c0-0.55-0.318-0.682-0.707-0.293l-12.879,12.879
					c-0.389,0.389-0.257,0.707,0.293,0.707H54.5z"/>
			</g>
			<g>
				<path fill="#FFFFFF" d="M112.5,101.793c0,0.55,0.318,0.682,0.707,0.293l12.879-12.879c0.389-0.389,0.257-0.707-0.293-0.707
					H113.5c-0.55,0-1,0.45-1,1V101.793z"/>
			</g>
			<g>
				<path fill="#FFFFFF" d="M126.5,103.5c0.55,0,1-0.45,1-1V90.207c0-0.55-0.318-0.682-0.707-0.293l-12.879,12.879
					c-0.389,0.389-0.257,0.707,0.293,0.707H126.5z"/>
			</g>
			<g>
				<path fill="#FFFFFF" d="M41.5,88.5c-0.55,0-1,0.45-1,1v12.293c0,0.55,0.318,0.682,0.707,0.293l12.879-12.879
					c0.389-0.389,0.257-0.707-0.293-0.707H41.5z"/>
			</g>
			<g>
				<path fill="#FFFFFF" d="M113.207,73.914c-0.389-0.389-0.707-0.257-0.707,0.293V86.5c0,0.55,0.45,1,1,1h12.293
					c0.55,0,0.682-0.318,0.293-0.707L113.207,73.914z"/>
			</g>
			<g>
				<path fill="#FFFFFF" d="M54.5,71.5c0.55,0,1-0.45,1-1V58.207c0-0.55-0.318-0.682-0.707-0.293L41.914,70.793
					c-0.389,0.389-0.257,0.707,0.293,0.707H54.5z"/>
			</g>
			<g>
				<path fill="#FFFFFF" d="M96.5,70.5c0,0.55,0.45,1,1,1h12.293c0.55,0,0.682-0.318,0.293-0.707L97.207,57.914
					c-0.389-0.389-0.707-0.257-0.707,0.293V70.5z"/>
			</g>
			<g>
				<path fill="#FFFFFF" d="M39.5,74.207c0-0.55-0.318-0.682-0.707-0.293L25.914,86.793c-0.389,0.389-0.257,0.707,0.293,0.707H38.5
					c0.55,0,1-0.45,1-1V74.207z"/>
			</g>
			<g>
				<path fill="#FFFFFF" d="M41.5,56.5c-0.55,0-1,0.45-1,1v12.293c0,0.55,0.318,0.682,0.707,0.293l12.879-12.879
					c0.389-0.389,0.257-0.707-0.293-0.707H41.5z"/>
			</g>
			<g>
				<path fill="#FFFFFF" d="M136.5,86.5c0,0.55,0.45,1,1,1h12.293c0.55,0,0.682-0.318,0.293-0.707l-12.879-12.879
					c-0.389-0.389-0.707-0.257-0.707,0.293V86.5z"/>
			</g>
			<g>
				<path fill="#FFFFFF" d="M38.793,102.086c0.389,0.389,0.707,0.257,0.707-0.293V89.5c0-0.55-0.45-1-1-1H26.207
					c-0.55,0-0.682,0.318-0.293,0.707L38.793,102.086z"/>
			</g>
			<g>
				<path fill="#FFFFFF" d="M38.5,71.5c0.55,0,1-0.45,1-1V58.207c0-0.55-0.318-0.682-0.707-0.293L25.914,70.793
					c-0.389,0.389-0.257,0.707,0.293,0.707H38.5z"/>
			</g>
			<g>
				<path fill="#FFFFFF" d="M24.5,85.793c0,0.55,0.318,0.682,0.707,0.293l12.879-12.879c0.389-0.389,0.257-0.707-0.293-0.707H25.5
					c-0.55,0-1,0.45-1,1V85.793z"/>
			</g>
			<g>
				<path fill="#FFFFFF" d="M56.5,70.5c0,0.55,0.45,1,1,1h12.293c0.55,0,0.682-0.318,0.293-0.707L57.207,57.914
					c-0.389-0.389-0.707-0.257-0.707,0.293V70.5z"/>
			</g>
			<g>
				<path fill="#FFFFFF" d="M150.5,71.5c0.55,0,1-0.45,1-1V58.207c0-0.55-0.318-0.682-0.707-0.293l-12.879,12.879
					c-0.389,0.389-0.257,0.707,0.293,0.707H150.5z"/>
			</g>
			<g>
				<path fill="#FFFFFF" d="M94.793,86.086c0.389,0.389,0.707,0.257,0.707-0.293V73.5c0-0.55-0.45-1-1-1H82.207
					c-0.55,0-0.682,0.318-0.293,0.707L94.793,86.086z"/>
			</g>
			<g>
				<path fill="#FFFFFF" d="M136.5,101.793c0,0.55,0.318,0.682,0.707,0.293l12.879-12.879c0.389-0.389,0.257-0.707-0.293-0.707
					H137.5c-0.55,0-1,0.45-1,1V101.793z"/>
			</g>
			<g>
				<path fill="#FFFFFF" d="M151.5,73.5c0-0.55-0.45-1-1-1h-12.293c-0.55,0-0.682,0.318-0.293,0.707l12.879,12.879
					c0.389,0.389,0.707,0.257,0.707-0.293V73.5z"/>
			</g>
			<g>
				<path fill="#FFFFFF" d="M150.5,103.5c0.55,0,1-0.45,1-1V90.207c0-0.55-0.318-0.682-0.707-0.293l-12.879,12.879
					c-0.389,0.389-0.257,0.707,0.293,0.707H150.5z"/>
			</g>
			<g>
				<path fill="#FFFFFF" d="M137.5,56.5c-0.55,0-1,0.45-1,1v12.293c0,0.55,0.318,0.682,0.707,0.293l12.879-12.879
					c0.389-0.389,0.257-0.707-0.293-0.707H137.5z"/>
			</g>
			<g>
				<path fill="#FFFFFF" d="M80.5,54.5c0,0.55,0.45,1,1,1h12.293c0.55,0,0.682-0.318,0.293-0.707L81.207,41.914
					c-0.389-0.389-0.707-0.257-0.707,0.293V54.5z"/>
			</g>
			<g>
				<path fill="#FFFFFF" d="M81.5,24.5c-0.55,0-1,0.45-1,1v12.293c0,0.55,0.318,0.682,0.707,0.293l12.879-12.879
					c0.389-0.389,0.257-0.707-0.293-0.707H81.5z"/>
			</g>
			<g>
				<path fill="#FFFFFF" d="M80.5,101.793c0,0.55,0.318,0.682,0.707,0.293l12.879-12.879c0.389-0.389,0.257-0.707-0.293-0.707H81.5
					c-0.55,0-1,0.45-1,1V101.793z"/>
			</g>
			<g>
				<path fill="#FFFFFF" d="M94.5,39.5c0.55,0,1-0.45,1-1V26.207c0-0.55-0.318-0.682-0.707-0.293L81.914,38.793
					c-0.389,0.389-0.257,0.707,0.293,0.707H94.5z"/>
			</g>
			<g>
				<path fill="#FFFFFF" d="M94.5,103.5c0.55,0,1-0.45,1-1V90.207c0-0.55-0.318-0.682-0.707-0.293l-12.879,12.879
					c-0.389,0.389-0.257,0.707,0.293,0.707H94.5z"/>
			</g>
			<g>
				<path fill="#FFFFFF" d="M95.5,41.5c0-0.55-0.45-1-1-1H82.207c-0.55,0-0.682,0.318-0.293,0.707l12.879,12.879
					c0.389,0.389,0.707,0.257,0.707-0.293V41.5z"/>
			</g>
			<g>
				<path fill="#FFFFFF" d="M80.5,86.5c0,0.55,0.45,1,1,1h12.293c0.55,0,0.682-0.318,0.293-0.707L81.207,73.914
					c-0.389-0.389-0.707-0.257-0.707,0.293V86.5z"/>
			</g>
			<g>
				<path fill="#FFFFFF" d="M111.5,57.5c0-0.55-0.45-1-1-1H98.207c-0.55,0-0.682,0.318-0.293,0.707l12.879,12.879
					c0.389,0.389,0.707,0.257,0.707-0.293V57.5z"/>
			</g>
			<g>
				<path fill="#FFFFFF" d="M80.5,69.793c0,0.55,0.318,0.682,0.707,0.293l12.879-12.879c0.389-0.389,0.257-0.707-0.293-0.707H81.5
					c-0.55,0-1,0.45-1,1V69.793z"/>
			</g>
		</g>
	</g>
</g>
</svg>
