<?xml version="1.0" encoding="utf-8"?>
<!-- Generator: Adobe Illustrator 16.0.0, SVG Export Plug-In . SVG Version: 6.00 Build 0)  -->
<!DOCTYPE svg PUBLIC "-//W3C//DTD SVG 1.1//EN" "http://www.w3.org/Graphics/SVG/1.1/DTD/svg11.dtd">
<svg version="1.1" id="Layer_1" xmlns="http://www.w3.org/2000/svg" xmlns:xlink="http://www.w3.org/1999/xlink" x="0px" y="0px"
	 width="264px" height="80px" viewBox="0 0 264 80" enable-background="new 0 0 264 80" xml:space="preserve">
<g id="Flat_Color">
	<g>
		<polygon fill="none" points="136,48 152,64 136,64 136,80 152,80 168,64 152,48 168,48 168,32 152,32 		"/>
		<path fill="none" d="M208,32h-16l-16,16v16l16,16h16l16-16h-16l16-16L208,32z M192,64V48h16L192,64z"/>
		<polygon fill="none" points="264,64.002 248,64.002 248,64 248,48 248,32 248,16 248,0 232,0 232,16 232,32 232,48 232,64 232,80 
			248,80 248,80.002 		"/>
		<polygon fill="none" points="112,48 112,64 112,80 128,80 128,64 128,48 128,32 112,32 		"/>
		<polygon fill="none" points="112,24 128,24 112,8 		"/>
		<polygon fill="none" points="72,32 72,16 72,0 56,0 56,16 56,32 56,48 56,64 56,80 72,80 72,64 72,48 88,48 88,64 88,80 104,80 
			104,64 104,48 88,32 		"/>
		<polygon fill="none" points="32,48 48,48 32,32 16,32 0,48 0,64 16,80 32,80 48,64 32,64 16,64 16,48 		"/>
	</g>
	<g>
		<g>
			<path fill="#1A8EBD" d="M208.5,61.795c0,0.55,0.318,0.682,0.707,0.293l12.879-12.879c0.389-0.389,0.257-0.707-0.293-0.707H209.5
				c-0.55,0-1,0.45-1,1V61.795z"/>
		</g>
		<g>
			<path fill="#1A8EBD" d="M150.5,79.502c0.55,0,1-0.45,1-1V66.209c0-0.55-0.318-0.682-0.707-0.293l-12.879,12.879
				c-0.389,0.389-0.257,0.707,0.293,0.707H150.5z"/>
		</g>
		<g>
			<path fill="#1A8EBD" d="M206.5,47.502c0.55,0,1-0.45,1-1V34.209c0-0.55-0.318-0.682-0.707-0.293l-12.879,12.879
				c-0.389,0.389-0.257,0.707,0.293,0.707H206.5z"/>
		</g>
		<g>
			<path fill="#1A8EBD" d="M208.5,46.502c0,0.55,0.45,1,1,1h12.293c0.55,0,0.682-0.318,0.293-0.707l-12.879-12.879
				c-0.389-0.389-0.707-0.257-0.707,0.293V46.502z"/>
		</g>
		<g>
			<path fill="#1A8EBD" d="M176.5,61.795c0,0.55,0.318,0.682,0.707,0.293l12.879-12.879c0.389-0.389,0.257-0.707-0.293-0.707H177.5
				c-0.55,0-1,0.45-1,1V61.795z"/>
		</g>
		<g>
			<path fill="#1A8EBD" d="M190.5,47.502c0.55,0,1-0.45,1-1V34.209c0-0.55-0.318-0.682-0.707-0.293l-12.879,12.879
				c-0.389,0.389-0.257,0.707,0.293,0.707H190.5z"/>
		</g>
		<g>
			<path fill="#1A8EBD" d="M193.5,32.502c-0.55,0-1,0.45-1,1v12.293c0,0.55,0.318,0.682,0.707,0.293l12.879-12.879
				c0.389-0.389,0.257-0.707-0.293-0.707H193.5z"/>
		</g>
		<g>
			<path fill="#1A8EBD" d="M152.5,77.795c0,0.55,0.318,0.682,0.707,0.293l12.879-12.879c0.389-0.389,0.257-0.707-0.293-0.707H153.5
				c-0.55,0-1,0.45-1,1V77.795z"/>
		</g>
		<g>
			<path fill="#1A8EBD" d="M166.5,47.502c0.55,0,1-0.45,1-1V34.209c0-0.55-0.318-0.682-0.707-0.293l-12.879,12.879
				c-0.389,0.389-0.257,0.707,0.293,0.707H166.5z"/>
		</g>
		<g>
			<path fill="#1A8EBD" d="M152.5,62.502c0,0.55,0.45,1,1,1h12.293c0.55,0,0.682-0.318,0.293-0.707l-12.879-12.879
				c-0.389-0.389-0.707-0.257-0.707,0.293V62.502z"/>
		</g>
		<g>
			<path fill="#1A8EBD" d="M137.5,64.502c-0.55,0-1,0.45-1,1v12.293c0,0.55,0.318,0.682,0.707,0.293l12.879-12.879
				c0.389-0.389,0.257-0.707-0.293-0.707H137.5z"/>
		</g>
		<g>
			<path fill="#1A8EBD" d="M153.5,32.502c-0.55,0-1,0.45-1,1v12.293c0,0.55,0.318,0.682,0.707,0.293l12.879-12.879
				c0.389-0.389,0.257-0.707-0.293-0.707H153.5z"/>
		</g>
		<g>
			<path fill="#1A8EBD" d="M190.793,78.088c0.389,0.389,0.707,0.257,0.707-0.293V65.502c0-0.55-0.45-1-1-1h-12.293
				c-0.55,0-0.682,0.318-0.293,0.707L190.793,78.088z"/>
		</g>
		<g>
			<path fill="#1A8EBD" d="M151.5,34.209c0-0.55-0.318-0.682-0.707-0.293l-12.879,12.879c-0.389,0.389-0.257,0.707,0.293,0.707
				H150.5c0.55,0,1-0.45,1-1V34.209z"/>
		</g>
		<g>
			<path fill="#1A8EBD" d="M151.5,49.502c0-0.55-0.45-1-1-1h-12.293c-0.55,0-0.682,0.318-0.293,0.707l12.879,12.879
				c0.389,0.389,0.707,0.257,0.707-0.293V49.502z"/>
		</g>
		<g>
			<path fill="#1A8EBD" d="M247.5,49.502c0-0.55-0.45-1-1-1h-12.293c-0.55,0-0.682,0.318-0.293,0.707l12.879,12.879
				c0.389,0.389,0.707,0.257,0.707-0.293V49.502z"/>
		</g>
		<g>
			<path fill="#CA2027" d="M112.5,22.502c0,0.55,0.45,1,1,1h12.293c0.55,0,0.682-0.318,0.293-0.707L113.207,9.916
				c-0.389-0.389-0.707-0.257-0.707,0.293V22.502z"/>
		</g>
		<g>
			<path fill="#1A8EBD" d="M232.5,62.502c0,0.55,0.45,1,1,1h12.293c0.55,0,0.682-0.318,0.293-0.707l-12.879-12.879
				c-0.389-0.389-0.707-0.257-0.707,0.293V62.502z"/>
		</g>
		<g>
			<path fill="#1A8EBD" d="M246.5,79.502c0.55,0,1-0.45,1-1V66.209c0-0.55-0.318-0.682-0.707-0.293l-12.879,12.879
				c-0.389,0.389-0.257,0.707,0.293,0.707H246.5z"/>
		</g>
		<g>
			<path fill="#1A8EBD" d="M247.5,17.502c0-0.55-0.45-1-1-1h-12.293c-0.55,0-0.682,0.318-0.293,0.707l12.879,12.879
				c0.389,0.389,0.707,0.257,0.707-0.293V17.502z"/>
		</g>
		<g>
			<path fill="#1A8EBD" d="M247.5,34.209c0-0.55-0.318-0.682-0.707-0.293l-12.879,12.879c-0.389,0.389-0.257,0.707,0.293,0.707
				H246.5c0.55,0,1-0.45,1-1V34.209z"/>
		</g>
		<g>
			<path fill="#1A8EBD" d="M262.086,65.211c0.389-0.389,0.257-0.707-0.293-0.707H249.5c-0.55,0-1,0.45-1,1v12.293
				c0,0.55,0.318,0.682,0.707,0.293L262.086,65.211z"/>
		</g>
		<g>
			<path fill="#1A8EBD" d="M233.207,17.916c-0.389-0.389-0.707-0.257-0.707,0.293v12.293c0,0.55,0.45,1,1,1h12.293
				c0.55,0,0.682-0.318,0.293-0.707L233.207,17.916z"/>
		</g>
		<g>
			<path fill="#1A8EBD" d="M232.5,45.795c0,0.55,0.318,0.682,0.707,0.293l12.879-12.879c0.389-0.389,0.257-0.707-0.293-0.707H233.5
				c-0.55,0-1,0.45-1,1V45.795z"/>
		</g>
		<g>
			<path fill="#1A8EBD" d="M208.5,77.795c0,0.55,0.318,0.682,0.707,0.293l12.879-12.879c0.389-0.389,0.257-0.707-0.293-0.707H209.5
				c-0.55,0-1,0.45-1,1V77.795z"/>
		</g>
		<g>
			<path fill="#1A8EBD" d="M207.5,66.209c0-0.55-0.318-0.682-0.707-0.293l-12.879,12.879c-0.389,0.389-0.257,0.707,0.293,0.707
				H206.5c0.55,0,1-0.45,1-1V66.209z"/>
		</g>
		<g>
			<path fill="#1A8EBD" d="M206.5,63.502c0.55,0,1-0.45,1-1V50.209c0-0.55-0.318-0.682-0.707-0.293l-12.879,12.879
				c-0.389,0.389-0.257,0.707,0.293,0.707H206.5z"/>
		</g>
		<g>
			<path fill="#1A8EBD" d="M192.5,77.795c0,0.55,0.318,0.682,0.707,0.293l12.879-12.879c0.389-0.389,0.257-0.707-0.293-0.707H193.5
				c-0.55,0-1,0.45-1,1V77.795z"/>
		</g>
		<g>
			<path fill="#1A8EBD" d="M233.5,64.502c-0.55,0-1,0.45-1,1v12.293c0,0.55,0.318,0.682,0.707,0.293l12.879-12.879
				c0.389-0.389,0.257-0.707-0.293-0.707H233.5z"/>
		</g>
		<g>
			<path fill="#1A8EBD" d="M247.5,2.209c0-0.55-0.318-0.682-0.707-0.293l-12.879,12.879c-0.389,0.389-0.257,0.707,0.293,0.707H246.5
				c0.55,0,1-0.45,1-1V2.209z"/>
		</g>
		<g>
			<path fill="#1A8EBD" d="M191.5,50.209c0-0.55-0.318-0.682-0.707-0.293l-12.879,12.879c-0.389,0.389-0.257,0.707,0.293,0.707
				H190.5c0.55,0,1-0.45,1-1V50.209z"/>
		</g>
		<g>
			<path fill="#1A8EBD" d="M233.5,0.502c-0.55,0-1,0.45-1,1v12.293c0,0.55,0.318,0.682,0.707,0.293l12.879-12.879
				c0.389-0.389,0.257-0.707-0.293-0.707H233.5z"/>
		</g>
		<g>
			<path fill="#1A8EBD" d="M71.5,34.209c0-0.55-0.318-0.682-0.707-0.293L57.914,46.795c-0.389,0.389-0.257,0.707,0.293,0.707H70.5
				c0.55,0,1-0.45,1-1V34.209z"/>
		</g>
		<g>
			<path fill="#1A8EBD" d="M89.207,33.916c-0.389-0.389-0.707-0.257-0.707,0.293v12.293c0,0.55,0.45,1,1,1h12.293
				c0.55,0,0.682-0.318,0.293-0.707L89.207,33.916z"/>
		</g>
		<g>
			<path fill="#1A8EBD" d="M32.5,77.795c0,0.55,0.318,0.682,0.707,0.293l12.879-12.879c0.389-0.389,0.257-0.707-0.293-0.707H33.5
				c-0.55,0-1,0.45-1,1V77.795z"/>
		</g>
		<g>
			<path fill="#1A8EBD" d="M102.793,62.088c0.389,0.389,0.707,0.257,0.707-0.293V49.502c0-0.55-0.45-1-1-1H90.207
				c-0.55,0-0.682,0.318-0.293,0.707L102.793,62.088z"/>
		</g>
		<g>
			<path fill="#1A8EBD" d="M30.5,79.502c0.55,0,1-0.45,1-1V66.209c0-0.55-0.318-0.682-0.707-0.293L17.914,78.795
				c-0.389,0.389-0.257,0.707,0.293,0.707H30.5z"/>
		</g>
		<g>
			<path fill="#1A8EBD" d="M88.5,77.795c0,0.55,0.318,0.682,0.707,0.293l12.879-12.879c0.389-0.389,0.257-0.707-0.293-0.707H89.5
				c-0.55,0-1,0.45-1,1V77.795z"/>
		</g>
		<g>
			<path fill="#1A8EBD" d="M102.5,79.502c0.55,0,1-0.45,1-1V66.209c0-0.55-0.318-0.682-0.707-0.293L89.914,78.795
				c-0.389,0.389-0.257,0.707,0.293,0.707H102.5z"/>
		</g>
		<g>
			<path fill="#1A8EBD" d="M17.5,64.502c-0.55,0-1,0.45-1,1v12.293c0,0.55,0.318,0.682,0.707,0.293l12.879-12.879
				c0.389-0.389,0.257-0.707-0.293-0.707H17.5z"/>
		</g>
		<g>
			<path fill="#1A8EBD" d="M89.207,49.916c-0.389-0.389-0.707-0.257-0.707,0.293v12.293c0,0.55,0.45,1,1,1h12.293
				c0.55,0,0.682-0.318,0.293-0.707L89.207,49.916z"/>
		</g>
		<g>
			<path fill="#1A8EBD" d="M30.5,47.502c0.55,0,1-0.45,1-1V34.209c0-0.55-0.318-0.682-0.707-0.293L17.914,46.795
				c-0.389,0.389-0.257,0.707,0.293,0.707H30.5z"/>
		</g>
		<g>
			<path fill="#1A8EBD" d="M72.5,46.502c0,0.55,0.45,1,1,1h12.293c0.55,0,0.682-0.318,0.293-0.707L73.207,33.916
				c-0.389-0.389-0.707-0.257-0.707,0.293V46.502z"/>
		</g>
		<g>
			<path fill="#1A8EBD" d="M15.5,50.209c0-0.55-0.318-0.682-0.707-0.293L1.914,62.795c-0.389,0.389-0.257,0.707,0.293,0.707H14.5
				c0.55,0,1-0.45,1-1V50.209z"/>
		</g>
		<g>
			<path fill="#1A8EBD" d="M17.5,32.502c-0.55,0-1,0.45-1,1v12.293c0,0.55,0.318,0.682,0.707,0.293l12.879-12.879
				c0.389-0.389,0.257-0.707-0.293-0.707H17.5z"/>
		</g>
		<g>
			<path fill="#1A8EBD" d="M112.5,62.502c0,0.55,0.45,1,1,1h12.293c0.55,0,0.682-0.318,0.293-0.707l-12.879-12.879
				c-0.389-0.389-0.707-0.257-0.707,0.293V62.502z"/>
		</g>
		<g>
			<path fill="#1A8EBD" d="M14.793,78.088c0.389,0.389,0.707,0.257,0.707-0.293V65.502c0-0.55-0.45-1-1-1H2.207
				c-0.55,0-0.682,0.318-0.293,0.707L14.793,78.088z"/>
		</g>
		<g>
			<path fill="#1A8EBD" d="M14.5,47.502c0.55,0,1-0.45,1-1V34.209c0-0.55-0.318-0.682-0.707-0.293L1.914,46.795
				c-0.389,0.389-0.257,0.707,0.293,0.707H14.5z"/>
		</g>
		<g>
			<path fill="#1A8EBD" d="M0.5,61.795c0,0.55,0.318,0.682,0.707,0.293l12.879-12.879c0.389-0.389,0.257-0.707-0.293-0.707H1.5
				c-0.55,0-1,0.45-1,1V61.795z"/>
		</g>
		<g>
			<path fill="#1A8EBD" d="M32.5,46.502c0,0.55,0.45,1,1,1h12.293c0.55,0,0.682-0.318,0.293-0.707L33.207,33.916
				c-0.389-0.389-0.707-0.257-0.707,0.293V46.502z"/>
		</g>
		<g>
			<path fill="#1A8EBD" d="M126.5,47.502c0.55,0,1-0.45,1-1V34.209c0-0.55-0.318-0.682-0.707-0.293l-12.879,12.879
				c-0.389,0.389-0.257,0.707,0.293,0.707H126.5z"/>
		</g>
		<g>
			<path fill="#1A8EBD" d="M70.793,62.088c0.389,0.389,0.707,0.257,0.707-0.293V49.502c0-0.55-0.45-1-1-1H58.207
				c-0.55,0-0.682,0.318-0.293,0.707L70.793,62.088z"/>
		</g>
		<g>
			<path fill="#1A8EBD" d="M112.5,77.795c0,0.55,0.318,0.682,0.707,0.293l12.879-12.879c0.389-0.389,0.257-0.707-0.293-0.707H113.5
				c-0.55,0-1,0.45-1,1V77.795z"/>
		</g>
		<g>
			<path fill="#1A8EBD" d="M127.5,49.502c0-0.55-0.45-1-1-1h-12.293c-0.55,0-0.682,0.318-0.293,0.707l12.879,12.879
				c0.389,0.389,0.707,0.257,0.707-0.293V49.502z"/>
		</g>
		<g>
			<path fill="#1A8EBD" d="M126.5,79.502c0.55,0,1-0.45,1-1V66.209c0-0.55-0.318-0.682-0.707-0.293l-12.879,12.879
				c-0.389,0.389-0.257,0.707,0.293,0.707H126.5z"/>
		</g>
		<g>
			<path fill="#1A8EBD" d="M113.5,32.502c-0.55,0-1,0.45-1,1v12.293c0,0.55,0.318,0.682,0.707,0.293l12.879-12.879
				c0.389-0.389,0.257-0.707-0.293-0.707H113.5z"/>
		</g>
		<g>
			<path fill="#1A8EBD" d="M56.5,30.502c0,0.55,0.45,1,1,1h12.293c0.55,0,0.682-0.318,0.293-0.707L57.207,17.916
				c-0.389-0.389-0.707-0.257-0.707,0.293V30.502z"/>
		</g>
		<g>
			<path fill="#1A8EBD" d="M57.5,0.502c-0.55,0-1,0.45-1,1v12.293c0,0.55,0.318,0.682,0.707,0.293L70.086,1.209
				c0.389-0.389,0.257-0.707-0.293-0.707H57.5z"/>
		</g>
		<g>
			<path fill="#1A8EBD" d="M56.5,77.795c0,0.55,0.318,0.682,0.707,0.293l12.879-12.879c0.389-0.389,0.257-0.707-0.293-0.707H57.5
				c-0.55,0-1,0.45-1,1V77.795z"/>
		</g>
		<g>
			<path fill="#1A8EBD" d="M70.5,15.502c0.55,0,1-0.45,1-1V2.209c0-0.55-0.318-0.682-0.707-0.293L57.914,14.795
				c-0.389,0.389-0.257,0.707,0.293,0.707H70.5z"/>
		</g>
		<g>
			<path fill="#1A8EBD" d="M70.5,79.502c0.55,0,1-0.45,1-1V66.209c0-0.55-0.318-0.682-0.707-0.293L57.914,78.795
				c-0.389,0.389-0.257,0.707,0.293,0.707H70.5z"/>
		</g>
		<g>
			<path fill="#1A8EBD" d="M71.5,17.502c0-0.55-0.45-1-1-1H58.207c-0.55,0-0.682,0.318-0.293,0.707l12.879,12.879
				c0.389,0.389,0.707,0.257,0.707-0.293V17.502z"/>
		</g>
		<g>
			<path fill="#1A8EBD" d="M56.5,62.502c0,0.55,0.45,1,1,1h12.293c0.55,0,0.682-0.318,0.293-0.707L57.207,49.916
				c-0.389-0.389-0.707-0.257-0.707,0.293V62.502z"/>
		</g>
		<g>
			<path fill="#1A8EBD" d="M87.5,33.502c0-0.55-0.45-1-1-1H74.207c-0.55,0-0.682,0.318-0.293,0.707l12.879,12.879
				c0.389,0.389,0.707,0.257,0.707-0.293V33.502z"/>
		</g>
		<g>
			<path fill="#1A8EBD" d="M56.5,45.795c0,0.55,0.318,0.682,0.707,0.293l12.879-12.879c0.389-0.389,0.257-0.707-0.293-0.707H57.5
				c-0.55,0-1,0.45-1,1V45.795z"/>
		</g>
	</g>
</g>
</svg>
