<?xml version="1.0" encoding="utf-8"?>
<!-- Generator: Adobe Illustrator 16.0.0, SVG Export Plug-In . SVG Version: 6.00 Build 0)  -->
<!DOCTYPE svg PUBLIC "-//W3C//DTD SVG 1.1//EN" "http://www.w3.org/Graphics/SVG/1.1/DTD/svg11.dtd">
<svg version="1.1" id="Layer_1" xmlns="http://www.w3.org/2000/svg" xmlns:xlink="http://www.w3.org/1999/xlink" x="0px" y="0px"
	 width="264px" height="80px" viewBox="0 0 264 80" enable-background="new 0 0 264 80" xml:space="preserve">
<g id="Flat_Grey">
	<g>
		<polygon fill="none" points="136,47.998 152,63.998 136,63.998 136,79.998 152,79.998 168,63.998 152,47.998 168,47.998 
			168,31.998 152,31.998 		"/>
		<path fill="none" d="M208,31.998h-16l-16,16v16l16,16h16l16-16h-16l16-16L208,31.998z M192,63.998v-16h16L192,63.998z"/>
		<polygon fill="none" points="264,64 248,64 248,63.998 248,47.998 248,31.998 248,15.998 248,-0.002 232,-0.002 232,15.998 
			232,31.998 232,47.998 232,63.998 232,79.998 248,79.998 248,80 		"/>
		<polygon fill="none" points="112,47.998 112,63.998 112,79.998 128,79.998 128,63.998 128,47.998 128,31.998 112,31.998 		"/>
		<polygon fill="none" points="112,23.998 128,23.998 112,7.998 		"/>
		<polygon fill="none" points="72,31.998 72,15.998 72,-0.002 56,-0.002 56,15.998 56,31.998 56,47.998 56,63.998 56,79.998 
			72,79.998 72,63.998 72,47.998 88,47.998 88,63.998 88,79.998 104,79.998 104,63.998 104,47.998 88,31.998 		"/>
		<polygon fill="none" points="32,47.998 48,47.998 32,31.998 16,31.998 0,47.998 0,63.998 16,79.998 32,79.998 48,63.998 
			32,63.998 16,63.998 16,47.998 		"/>
	</g>
	<g>
		<g>
			<path fill="#666766" d="M208.5,61.793c0,0.55,0.318,0.682,0.707,0.293l12.879-12.879c0.389-0.389,0.257-0.707-0.293-0.707H209.5
				c-0.55,0-1,0.45-1,1V61.793z"/>
		</g>
		<g>
			<path fill="#666766" d="M150.5,79.5c0.55,0,1-0.45,1-1V66.207c0-0.55-0.318-0.682-0.707-0.293l-12.879,12.879
				c-0.389,0.389-0.257,0.707,0.293,0.707H150.5z"/>
		</g>
		<g>
			<path fill="#666766" d="M206.5,47.5c0.55,0,1-0.45,1-1V34.207c0-0.55-0.318-0.682-0.707-0.293l-12.879,12.879
				c-0.389,0.389-0.257,0.707,0.293,0.707H206.5z"/>
		</g>
		<g>
			<path fill="#666766" d="M208.5,46.5c0,0.55,0.45,1,1,1h12.293c0.55,0,0.682-0.318,0.293-0.707l-12.879-12.879
				c-0.389-0.389-0.707-0.257-0.707,0.293V46.5z"/>
		</g>
		<g>
			<path fill="#666766" d="M176.5,61.793c0,0.55,0.318,0.682,0.707,0.293l12.879-12.879c0.389-0.389,0.257-0.707-0.293-0.707H177.5
				c-0.55,0-1,0.45-1,1V61.793z"/>
		</g>
		<g>
			<path fill="#666766" d="M190.5,47.5c0.55,0,1-0.45,1-1V34.207c0-0.55-0.318-0.682-0.707-0.293l-12.879,12.879
				c-0.389,0.389-0.257,0.707,0.293,0.707H190.5z"/>
		</g>
		<g>
			<path fill="#666766" d="M193.5,32.5c-0.55,0-1,0.45-1,1v12.293c0,0.55,0.318,0.682,0.707,0.293l12.879-12.879
				c0.389-0.389,0.257-0.707-0.293-0.707H193.5z"/>
		</g>
		<g>
			<path fill="#666766" d="M152.5,77.793c0,0.55,0.318,0.682,0.707,0.293l12.879-12.879c0.389-0.389,0.257-0.707-0.293-0.707H153.5
				c-0.55,0-1,0.45-1,1V77.793z"/>
		</g>
		<g>
			<path fill="#666766" d="M166.5,47.5c0.55,0,1-0.45,1-1V34.207c0-0.55-0.318-0.682-0.707-0.293l-12.879,12.879
				c-0.389,0.389-0.257,0.707,0.293,0.707H166.5z"/>
		</g>
		<g>
			<path fill="#666766" d="M152.5,62.5c0,0.55,0.45,1,1,1h12.293c0.55,0,0.682-0.318,0.293-0.707l-12.879-12.879
				c-0.389-0.389-0.707-0.257-0.707,0.293V62.5z"/>
		</g>
		<g>
			<path fill="#666766" d="M137.5,64.5c-0.55,0-1,0.45-1,1v12.293c0,0.55,0.318,0.682,0.707,0.293l12.879-12.879
				c0.389-0.389,0.257-0.707-0.293-0.707H137.5z"/>
		</g>
		<g>
			<path fill="#666766" d="M153.5,32.5c-0.55,0-1,0.45-1,1v12.293c0,0.55,0.318,0.682,0.707,0.293l12.879-12.879
				c0.389-0.389,0.257-0.707-0.293-0.707H153.5z"/>
		</g>
		<g>
			<path fill="#666766" d="M190.793,78.086c0.389,0.389,0.707,0.257,0.707-0.293V65.5c0-0.55-0.45-1-1-1h-12.293
				c-0.55,0-0.682,0.318-0.293,0.707L190.793,78.086z"/>
		</g>
		<g>
			<path fill="#666766" d="M151.5,34.207c0-0.55-0.318-0.682-0.707-0.293l-12.879,12.879c-0.389,0.389-0.257,0.707,0.293,0.707
				H150.5c0.55,0,1-0.45,1-1V34.207z"/>
		</g>
		<g>
			<path fill="#666766" d="M151.5,49.5c0-0.55-0.45-1-1-1h-12.293c-0.55,0-0.682,0.318-0.293,0.707l12.879,12.879
				c0.389,0.389,0.707,0.257,0.707-0.293V49.5z"/>
		</g>
		<g>
			<path fill="#666766" d="M247.5,49.5c0-0.55-0.45-1-1-1h-12.293c-0.55,0-0.682,0.318-0.293,0.707l12.879,12.879
				c0.389,0.389,0.707,0.257,0.707-0.293V49.5z"/>
		</g>
		<g>
			<path fill="#666766" d="M112.5,22.5c0,0.55,0.45,1,1,1h12.293c0.55,0,0.682-0.318,0.293-0.707L113.207,9.914
				c-0.389-0.389-0.707-0.257-0.707,0.293V22.5z"/>
		</g>
		<g>
			<path fill="#666766" d="M232.5,62.5c0,0.55,0.45,1,1,1h12.293c0.55,0,0.682-0.318,0.293-0.707l-12.879-12.879
				c-0.389-0.389-0.707-0.257-0.707,0.293V62.5z"/>
		</g>
		<g>
			<path fill="#666766" d="M246.5,79.5c0.55,0,1-0.45,1-1V66.207c0-0.55-0.318-0.682-0.707-0.293l-12.879,12.879
				c-0.389,0.389-0.257,0.707,0.293,0.707H246.5z"/>
		</g>
		<g>
			<path fill="#666766" d="M247.5,17.5c0-0.55-0.45-1-1-1h-12.293c-0.55,0-0.682,0.318-0.293,0.707l12.879,12.879
				c0.389,0.389,0.707,0.257,0.707-0.293V17.5z"/>
		</g>
		<g>
			<path fill="#666766" d="M247.5,34.207c0-0.55-0.318-0.682-0.707-0.293l-12.879,12.879c-0.389,0.389-0.257,0.707,0.293,0.707
				H246.5c0.55,0,1-0.45,1-1V34.207z"/>
		</g>
		<g>
			<path fill="#666766" d="M262.086,65.209c0.389-0.389,0.257-0.707-0.293-0.707H249.5c-0.55,0-1,0.45-1,1v12.293
				c0,0.55,0.318,0.682,0.707,0.293L262.086,65.209z"/>
		</g>
		<g>
			<path fill="#666766" d="M233.207,17.914c-0.389-0.389-0.707-0.257-0.707,0.293V30.5c0,0.55,0.45,1,1,1h12.293
				c0.55,0,0.682-0.318,0.293-0.707L233.207,17.914z"/>
		</g>
		<g>
			<path fill="#666766" d="M232.5,45.793c0,0.55,0.318,0.682,0.707,0.293l12.879-12.879c0.389-0.389,0.257-0.707-0.293-0.707H233.5
				c-0.55,0-1,0.45-1,1V45.793z"/>
		</g>
		<g>
			<path fill="#666766" d="M208.5,77.793c0,0.55,0.318,0.682,0.707,0.293l12.879-12.879c0.389-0.389,0.257-0.707-0.293-0.707H209.5
				c-0.55,0-1,0.45-1,1V77.793z"/>
		</g>
		<g>
			<path fill="#666766" d="M207.5,66.207c0-0.55-0.318-0.682-0.707-0.293l-12.879,12.879c-0.389,0.389-0.257,0.707,0.293,0.707
				H206.5c0.55,0,1-0.45,1-1V66.207z"/>
		</g>
		<g>
			<path fill="#666766" d="M206.5,63.5c0.55,0,1-0.45,1-1V50.207c0-0.55-0.318-0.682-0.707-0.293l-12.879,12.879
				c-0.389,0.389-0.257,0.707,0.293,0.707H206.5z"/>
		</g>
		<g>
			<path fill="#666766" d="M192.5,77.793c0,0.55,0.318,0.682,0.707,0.293l12.879-12.879c0.389-0.389,0.257-0.707-0.293-0.707H193.5
				c-0.55,0-1,0.45-1,1V77.793z"/>
		</g>
		<g>
			<path fill="#666766" d="M233.5,64.5c-0.55,0-1,0.45-1,1v12.293c0,0.55,0.318,0.682,0.707,0.293l12.879-12.879
				c0.389-0.389,0.257-0.707-0.293-0.707H233.5z"/>
		</g>
		<g>
			<path fill="#666766" d="M247.5,2.207c0-0.55-0.318-0.682-0.707-0.293l-12.879,12.879c-0.389,0.389-0.257,0.707,0.293,0.707H246.5
				c0.55,0,1-0.45,1-1V2.207z"/>
		</g>
		<g>
			<path fill="#666766" d="M191.5,50.207c0-0.55-0.318-0.682-0.707-0.293l-12.879,12.879c-0.389,0.389-0.257,0.707,0.293,0.707
				H190.5c0.55,0,1-0.45,1-1V50.207z"/>
		</g>
		<g>
			<path fill="#666766" d="M233.5,0.5c-0.55,0-1,0.45-1,1v12.293c0,0.55,0.318,0.682,0.707,0.293l12.879-12.879
				c0.389-0.389,0.257-0.707-0.293-0.707H233.5z"/>
		</g>
		<g>
			<path fill="#666766" d="M71.5,34.207c0-0.55-0.318-0.682-0.707-0.293L57.914,46.793c-0.389,0.389-0.257,0.707,0.293,0.707H70.5
				c0.55,0,1-0.45,1-1V34.207z"/>
		</g>
		<g>
			<path fill="#666766" d="M89.207,33.914c-0.389-0.389-0.707-0.257-0.707,0.293V46.5c0,0.55,0.45,1,1,1h12.293
				c0.55,0,0.682-0.318,0.293-0.707L89.207,33.914z"/>
		</g>
		<g>
			<path fill="#666766" d="M32.5,77.793c0,0.55,0.318,0.682,0.707,0.293l12.879-12.879c0.389-0.389,0.257-0.707-0.293-0.707H33.5
				c-0.55,0-1,0.45-1,1V77.793z"/>
		</g>
		<g>
			<path fill="#666766" d="M102.793,62.086c0.389,0.389,0.707,0.257,0.707-0.293V49.5c0-0.55-0.45-1-1-1H90.207
				c-0.55,0-0.682,0.318-0.293,0.707L102.793,62.086z"/>
		</g>
		<g>
			<path fill="#666766" d="M30.5,79.5c0.55,0,1-0.45,1-1V66.207c0-0.55-0.318-0.682-0.707-0.293L17.914,78.793
				c-0.389,0.389-0.257,0.707,0.293,0.707H30.5z"/>
		</g>
		<g>
			<path fill="#666766" d="M88.5,77.793c0,0.55,0.318,0.682,0.707,0.293l12.879-12.879c0.389-0.389,0.257-0.707-0.293-0.707H89.5
				c-0.55,0-1,0.45-1,1V77.793z"/>
		</g>
		<g>
			<path fill="#666766" d="M102.5,79.5c0.55,0,1-0.45,1-1V66.207c0-0.55-0.318-0.682-0.707-0.293L89.914,78.793
				c-0.389,0.389-0.257,0.707,0.293,0.707H102.5z"/>
		</g>
		<g>
			<path fill="#666766" d="M17.5,64.5c-0.55,0-1,0.45-1,1v12.293c0,0.55,0.318,0.682,0.707,0.293l12.879-12.879
				c0.389-0.389,0.257-0.707-0.293-0.707H17.5z"/>
		</g>
		<g>
			<path fill="#666766" d="M89.207,49.914c-0.389-0.389-0.707-0.257-0.707,0.293V62.5c0,0.55,0.45,1,1,1h12.293
				c0.55,0,0.682-0.318,0.293-0.707L89.207,49.914z"/>
		</g>
		<g>
			<path fill="#666766" d="M30.5,47.5c0.55,0,1-0.45,1-1V34.207c0-0.55-0.318-0.682-0.707-0.293L17.914,46.793
				c-0.389,0.389-0.257,0.707,0.293,0.707H30.5z"/>
		</g>
		<g>
			<path fill="#666766" d="M72.5,46.5c0,0.55,0.45,1,1,1h12.293c0.55,0,0.682-0.318,0.293-0.707L73.207,33.914
				c-0.389-0.389-0.707-0.257-0.707,0.293V46.5z"/>
		</g>
		<g>
			<path fill="#666766" d="M15.5,50.207c0-0.55-0.318-0.682-0.707-0.293L1.914,62.793C1.525,63.182,1.657,63.5,2.207,63.5H14.5
				c0.55,0,1-0.45,1-1V50.207z"/>
		</g>
		<g>
			<path fill="#666766" d="M17.5,32.5c-0.55,0-1,0.45-1,1v12.293c0,0.55,0.318,0.682,0.707,0.293l12.879-12.879
				c0.389-0.389,0.257-0.707-0.293-0.707H17.5z"/>
		</g>
		<g>
			<path fill="#666766" d="M112.5,62.5c0,0.55,0.45,1,1,1h12.293c0.55,0,0.682-0.318,0.293-0.707l-12.879-12.879
				c-0.389-0.389-0.707-0.257-0.707,0.293V62.5z"/>
		</g>
		<g>
			<path fill="#666766" d="M14.793,78.086c0.389,0.389,0.707,0.257,0.707-0.293V65.5c0-0.55-0.45-1-1-1H2.207
				c-0.55,0-0.682,0.318-0.293,0.707L14.793,78.086z"/>
		</g>
		<g>
			<path fill="#666766" d="M14.5,47.5c0.55,0,1-0.45,1-1V34.207c0-0.55-0.318-0.682-0.707-0.293L1.914,46.793
				C1.525,47.182,1.657,47.5,2.207,47.5H14.5z"/>
		</g>
		<g>
			<path fill="#666766" d="M0.5,61.793c0,0.55,0.318,0.682,0.707,0.293l12.879-12.879c0.389-0.389,0.257-0.707-0.293-0.707H1.5
				c-0.55,0-1,0.45-1,1V61.793z"/>
		</g>
		<g>
			<path fill="#666766" d="M32.5,46.5c0,0.55,0.45,1,1,1h12.293c0.55,0,0.682-0.318,0.293-0.707L33.207,33.914
				c-0.389-0.389-0.707-0.257-0.707,0.293V46.5z"/>
		</g>
		<g>
			<path fill="#666766" d="M126.5,47.5c0.55,0,1-0.45,1-1V34.207c0-0.55-0.318-0.682-0.707-0.293l-12.879,12.879
				c-0.389,0.389-0.257,0.707,0.293,0.707H126.5z"/>
		</g>
		<g>
			<path fill="#666766" d="M70.793,62.086c0.389,0.389,0.707,0.257,0.707-0.293V49.5c0-0.55-0.45-1-1-1H58.207
				c-0.55,0-0.682,0.318-0.293,0.707L70.793,62.086z"/>
		</g>
		<g>
			<path fill="#666766" d="M112.5,77.793c0,0.55,0.318,0.682,0.707,0.293l12.879-12.879c0.389-0.389,0.257-0.707-0.293-0.707H113.5
				c-0.55,0-1,0.45-1,1V77.793z"/>
		</g>
		<g>
			<path fill="#666766" d="M127.5,49.5c0-0.55-0.45-1-1-1h-12.293c-0.55,0-0.682,0.318-0.293,0.707l12.879,12.879
				c0.389,0.389,0.707,0.257,0.707-0.293V49.5z"/>
		</g>
		<g>
			<path fill="#666766" d="M126.5,79.5c0.55,0,1-0.45,1-1V66.207c0-0.55-0.318-0.682-0.707-0.293l-12.879,12.879
				c-0.389,0.389-0.257,0.707,0.293,0.707H126.5z"/>
		</g>
		<g>
			<path fill="#666766" d="M113.5,32.5c-0.55,0-1,0.45-1,1v12.293c0,0.55,0.318,0.682,0.707,0.293l12.879-12.879
				c0.389-0.389,0.257-0.707-0.293-0.707H113.5z"/>
		</g>
		<g>
			<path fill="#666766" d="M56.5,30.5c0,0.55,0.45,1,1,1h12.293c0.55,0,0.682-0.318,0.293-0.707L57.207,17.914
				c-0.389-0.389-0.707-0.257-0.707,0.293V30.5z"/>
		</g>
		<g>
			<path fill="#666766" d="M57.5,0.5c-0.55,0-1,0.45-1,1v12.293c0,0.55,0.318,0.682,0.707,0.293L70.086,1.207
				C70.475,0.818,70.343,0.5,69.793,0.5H57.5z"/>
		</g>
		<g>
			<path fill="#666766" d="M56.5,77.793c0,0.55,0.318,0.682,0.707,0.293l12.879-12.879c0.389-0.389,0.257-0.707-0.293-0.707H57.5
				c-0.55,0-1,0.45-1,1V77.793z"/>
		</g>
		<g>
			<path fill="#666766" d="M70.5,15.5c0.55,0,1-0.45,1-1V2.207c0-0.55-0.318-0.682-0.707-0.293L57.914,14.793
				c-0.389,0.389-0.257,0.707,0.293,0.707H70.5z"/>
		</g>
		<g>
			<path fill="#666766" d="M70.5,79.5c0.55,0,1-0.45,1-1V66.207c0-0.55-0.318-0.682-0.707-0.293L57.914,78.793
				c-0.389,0.389-0.257,0.707,0.293,0.707H70.5z"/>
		</g>
		<g>
			<path fill="#666766" d="M71.5,17.5c0-0.55-0.45-1-1-1H58.207c-0.55,0-0.682,0.318-0.293,0.707l12.879,12.879
				c0.389,0.389,0.707,0.257,0.707-0.293V17.5z"/>
		</g>
		<g>
			<path fill="#666766" d="M56.5,62.5c0,0.55,0.45,1,1,1h12.293c0.55,0,0.682-0.318,0.293-0.707L57.207,49.914
				c-0.389-0.389-0.707-0.257-0.707,0.293V62.5z"/>
		</g>
		<g>
			<path fill="#666766" d="M87.5,33.5c0-0.55-0.45-1-1-1H74.207c-0.55,0-0.682,0.318-0.293,0.707l12.879,12.879
				c0.389,0.389,0.707,0.257,0.707-0.293V33.5z"/>
		</g>
		<g>
			<path fill="#666766" d="M56.5,45.793c0,0.55,0.318,0.682,0.707,0.293l12.879-12.879c0.389-0.389,0.257-0.707-0.293-0.707H57.5
				c-0.55,0-1,0.45-1,1V45.793z"/>
		</g>
	</g>
</g>
</svg>
